%
M48
M72
T01C0.0120
T02C0.0400
T03C0.1300
%
T01
X3125Y5875
X3125Y6875
X3125Y7875
X3125Y8875
X3125Y9875
X3125Y10875
X3125Y11875
X3125Y12875
X3125Y13875
X3125Y14875
X3125Y15875
X4875Y18125
X5875Y18125
X6875Y18125
X7875Y18125
X8875Y18125
X9875Y18125
X10875Y18125
X11875Y18125
X12875Y18125
X13875Y18125
X15625Y15875
X15625Y14875
X15625Y13875
X16325Y13875
X16325Y14875
X16325Y15875
X18075Y18125
X19075Y18125
X20075Y18125
X21075Y18125
X22075Y18125
X23075Y18125
X24075Y18125
X25075Y18125
X26075Y18125
X27075Y18125
X28825Y15875
X28825Y14875
X28825Y13875
X29525Y13875
X29525Y14875
X29525Y15875
X31275Y18125
X32275Y18125
X33275Y18125
X34275Y18125
X35275Y18125
X36275Y18125
X37275Y18125
X38275Y18125
X39275Y18125
X40275Y18125
X42025Y15875
X42025Y14875
X42025Y13875
X42025Y12875
X42025Y11875
X42025Y10875
X42025Y9875
X42025Y8875
X41525Y8175
X42025Y7875
X42025Y6875
X42025Y5875
X39475Y7375
X36875Y8175
X36325Y8775
X35696Y8175
X35925Y6575
X35775Y6275
X35975Y10425
X35975Y11025
X35975Y11525
X36125Y12075
X35805Y12116
X36464Y12055
X37005Y12595
X37005Y12945
X37024Y13275
X37025Y13975
X37625Y13825
X37025Y14675
X36275Y14675
X35775Y14675
X35275Y14675
X35345Y13867
X36205Y13865
X34535Y13670
X34525Y13175
X34535Y12686
X34625Y12225
X34945Y12225
X34986Y11905
X32975Y13375
X32975Y13975
X29525Y12875
X29525Y11875
X29525Y10875
X28825Y10875
X28825Y11875
X28825Y12875
X28825Y9875
X28825Y8875
X28325Y8175
X28825Y7875
X28825Y6875
X28825Y5875
X29525Y5875
X29525Y6875
X29525Y7875
X29525Y8875
X29525Y9875
X26275Y7375
X23675Y8175
X23125Y8775
X22496Y8175
X22725Y6575
X22575Y6275
X22775Y10425
X22775Y11025
X22775Y11525
X22925Y12075
X22605Y12116
X21786Y11905
X21745Y12225
X21425Y12225
X21335Y12686
X21325Y13175
X21335Y13670
X22145Y13867
X22075Y14675
X22575Y14675
X23075Y14675
X23005Y13865
X23825Y13975
X24425Y13825
X23824Y13275
X23805Y12945
X23805Y12595
X23264Y12055
X24575Y11595
X25075Y11625
X24575Y11055
X25025Y12875
X26025Y12575
X26025Y13225
X25375Y14375
X25375Y14975
X23825Y14675
X19775Y13975
X19775Y13375
X16325Y12875
X16325Y11875
X16325Y10875
X15625Y10875
X15625Y11875
X15625Y12875
X15625Y9875
X15625Y8875
X15125Y8175
X15625Y7875
X15625Y6875
X15625Y5875
X16325Y5875
X16325Y6875
X16325Y7875
X16325Y8875
X16325Y9875
X13075Y7375
X10475Y8175
X9925Y8775
X9296Y8175
X9525Y6575
X9375Y6275
X9575Y10425
X9575Y11025
X9575Y11525
X9725Y12075
X9405Y12116
X8586Y11905
X8545Y12225
X8225Y12225
X8135Y12686
X8125Y13175
X8135Y13670
X8945Y13867
X8875Y14675
X9375Y14675
X9875Y14675
X9805Y13865
X10625Y13975
X11225Y13825
X10624Y13275
X10605Y12945
X10605Y12595
X10064Y12055
X11375Y11595
X11875Y11625
X11375Y11055
X11825Y12875
X12825Y12575
X12825Y13225
X12175Y14375
X12175Y14975
X10625Y14675
X6575Y13975
X6575Y13375
X3125Y21575
X3125Y22575
X3125Y23575
X3125Y24575
X3125Y25575
X3125Y26575
X3125Y27575
X3125Y28575
X3125Y29575
X3125Y30575
X3125Y31575
X4875Y33825
X5875Y33825
X6875Y33825
X7875Y33825
X8875Y33825
X9875Y33825
X10875Y33825
X11875Y33825
X12875Y33825
X13875Y33825
X15625Y31575
X15625Y30575
X16325Y30575
X16325Y31575
X16325Y29575
X16325Y28575
X16325Y27575
X15625Y27575
X15625Y28575
X15625Y29575
X15625Y26575
X15625Y25575
X16325Y25575
X16325Y26575
X16325Y24575
X16325Y23575
X16325Y22575
X15625Y22575
X15625Y23575
X15125Y23875
X15625Y24575
X15625Y21575
X16325Y21575
X13075Y23075
X10475Y23875
X9925Y24475
X9296Y23875
X9525Y22275
X9375Y21975
X9575Y26125
X9575Y26725
X9575Y27225
X9725Y27775
X9405Y27816
X8586Y27605
X8545Y27925
X8225Y27925
X8135Y28386
X8125Y28875
X8135Y29370
X8875Y30375
X9375Y30375
X9875Y30375
X9805Y29565
X8945Y29567
X10064Y27755
X10605Y28295
X10605Y28645
X10624Y28975
X10625Y29675
X11225Y29525
X10625Y30375
X11825Y28575
X12825Y28275
X12825Y28925
X12175Y30075
X12175Y30675
X11875Y27325
X11375Y27295
X11375Y26755
X6575Y29075
X6575Y29675
X3125Y37275
X3125Y38275
X3125Y39275
X3125Y40275
X3125Y41275
X3125Y42275
X3125Y43275
X3125Y44275
X3125Y45275
X3125Y46275
X3125Y47275
X4875Y49525
X5875Y49525
X6875Y49525
X7875Y49525
X8875Y49525
X9875Y49525
X10875Y49525
X11875Y49525
X12875Y49525
X13875Y49525
X15625Y47275
X16325Y47275
X16325Y46275
X16325Y45275
X16325Y44275
X15625Y44275
X15625Y45275
X15625Y46275
X15625Y43275
X15625Y42275
X15625Y41275
X16325Y41275
X16325Y42275
X16325Y43275
X16325Y40275
X16325Y39275
X15625Y39275
X15125Y39575
X15625Y40275
X15625Y38275
X15625Y37275
X16325Y37275
X16325Y38275
X18075Y33825
X19075Y33825
X20075Y33825
X21075Y33825
X22075Y33825
X23075Y33825
X24075Y33825
X25075Y33825
X26075Y33825
X27075Y33825
X28825Y31575
X28825Y30575
X29525Y30575
X29525Y31575
X29525Y29575
X29525Y28575
X29525Y27575
X28825Y27575
X28825Y28575
X28825Y29575
X28825Y26575
X28825Y25575
X29525Y25575
X29525Y26575
X29525Y24575
X29525Y23575
X29525Y22575
X28825Y22575
X28825Y23575
X28325Y23875
X28825Y24575
X28825Y21575
X29525Y21575
X26275Y23075
X23675Y23875
X23125Y24475
X22496Y23875
X22725Y22275
X22575Y21975
X22775Y26125
X22775Y26725
X22775Y27225
X22925Y27775
X22605Y27816
X21786Y27605
X21745Y27925
X21425Y27925
X21335Y28386
X21325Y28875
X21335Y29370
X22075Y30375
X22575Y30375
X23075Y30375
X23005Y29565
X22145Y29567
X23264Y27755
X23805Y28295
X23805Y28645
X23824Y28975
X23825Y29675
X24425Y29525
X23825Y30375
X25025Y28575
X26025Y28275
X26025Y28925
X25375Y30075
X25375Y30675
X25075Y27325
X24575Y27295
X24575Y26755
X19775Y29075
X19775Y29675
X22575Y37675
X22725Y37975
X22496Y39575
X23125Y40175
X23675Y39575
X22775Y41825
X22775Y42425
X22775Y42925
X22925Y43475
X22605Y43516
X21786Y43305
X21745Y43625
X21425Y43625
X21335Y44086
X21325Y44575
X21335Y45070
X22075Y46075
X22575Y46075
X23075Y46075
X23005Y45265
X22145Y45267
X23264Y43455
X23805Y43995
X23805Y44345
X23824Y44675
X23825Y45375
X24425Y45225
X23825Y46075
X25025Y44275
X26025Y43975
X26025Y44625
X25375Y45775
X25375Y46375
X25075Y49525
X24075Y49525
X23075Y49525
X22075Y49525
X21075Y49525
X20075Y49525
X19075Y49525
X18075Y49525
X16325Y52975
X16325Y53975
X15625Y53975
X15625Y52975
X15625Y54975
X15125Y55275
X15625Y55975
X15625Y56975
X16325Y56975
X16325Y55975
X16325Y54975
X16325Y57975
X16325Y58975
X16325Y59975
X15625Y59975
X15625Y58975
X15625Y57975
X15625Y60975
X15625Y61975
X16325Y61975
X16325Y60975
X16325Y62975
X15625Y62975
X13875Y65225
X12875Y65225
X11875Y65225
X10875Y65225
X9875Y65225
X8875Y65225
X7875Y65225
X6875Y65225
X5875Y65225
X4875Y65225
X3125Y62975
X3125Y61975
X3125Y60975
X3125Y59975
X3125Y58975
X3125Y57975
X3125Y56975
X3125Y55975
X3125Y54975
X3125Y53975
X3125Y52975
X8225Y59325
X8545Y59325
X8586Y59005
X9405Y59216
X9725Y59175
X10064Y59155
X9575Y58625
X9575Y58125
X9575Y57525
X9925Y55875
X10475Y55275
X9296Y55275
X9525Y53675
X9375Y53375
X13075Y54475
X11375Y58155
X11375Y58695
X11875Y58725
X11825Y59975
X12825Y59675
X12825Y60325
X12175Y61475
X12175Y62075
X11225Y60925
X10625Y61075
X10624Y60375
X10605Y60045
X10605Y59695
X9805Y60965
X9875Y61775
X9375Y61775
X8875Y61775
X8945Y60967
X8135Y60770
X8125Y60275
X8135Y59786
X6575Y60475
X6575Y61075
X10625Y61775
X18075Y65225
X19075Y65225
X20075Y65225
X21075Y65225
X22075Y65225
X23075Y65225
X24075Y65225
X25075Y65225
X26075Y65225
X27075Y65225
X28825Y62975
X29525Y62975
X29525Y61975
X29525Y60975
X28825Y60975
X28825Y61975
X28825Y59975
X28825Y58975
X28825Y57975
X29525Y57975
X29525Y58975
X29525Y59975
X29525Y56975
X29525Y55975
X29525Y54975
X28825Y54975
X28325Y55275
X28825Y55975
X28825Y56975
X28825Y53975
X28825Y52975
X29525Y52975
X29525Y53975
X31275Y49525
X32275Y49525
X33275Y49525
X34275Y49525
X35275Y49525
X36275Y49525
X37275Y49525
X38275Y49525
X39275Y49525
X40275Y49525
X42025Y47275
X42025Y46275
X42025Y45275
X42025Y44275
X42025Y43275
X42025Y42275
X42025Y41275
X42025Y40275
X41525Y39575
X42025Y39275
X42025Y38275
X42025Y37275
X39475Y38775
X36875Y39575
X36325Y40175
X35696Y39575
X35925Y37975
X35775Y37675
X35975Y41825
X35975Y42425
X35975Y42925
X36125Y43475
X35805Y43516
X36464Y43455
X37005Y43995
X37005Y44345
X37024Y44675
X37025Y45375
X37625Y45225
X37025Y46075
X36275Y46075
X35775Y46075
X35275Y46075
X35345Y45267
X36205Y45265
X34945Y43625
X34625Y43625
X34535Y44086
X34525Y44575
X34535Y45070
X32975Y44775
X32975Y45375
X34986Y43305
X37775Y42995
X38275Y43025
X37775Y42455
X38225Y44275
X39225Y43975
X39225Y44625
X38575Y45775
X38575Y46375
X42025Y52975
X42025Y53975
X42025Y54975
X41525Y55275
X42025Y55975
X42025Y56975
X42025Y57975
X42025Y58975
X42025Y59975
X42025Y60975
X42025Y61975
X42025Y62975
X40275Y65225
X39275Y65225
X38275Y65225
X37275Y65225
X36275Y65225
X35275Y65225
X34275Y65225
X33275Y65225
X32275Y65225
X31275Y65225
X32975Y61075
X32975Y60475
X34525Y60275
X34535Y59786
X34625Y59325
X34945Y59325
X34986Y59005
X35805Y59216
X36125Y59175
X36464Y59155
X35975Y58625
X35975Y58125
X35975Y57525
X36325Y55875
X36875Y55275
X35925Y53675
X35775Y53375
X35696Y55275
X37775Y58155
X37775Y58695
X38275Y58725
X38225Y59975
X39225Y59675
X39225Y60325
X38575Y61475
X38575Y62075
X37625Y60925
X37025Y61075
X37024Y60375
X37005Y60045
X37005Y59695
X36205Y60965
X36275Y61775
X35775Y61775
X35275Y61775
X35345Y60967
X34535Y60770
X37025Y61775
X39475Y54475
X29525Y47275
X28825Y47275
X28825Y46275
X28825Y45275
X28825Y44275
X29525Y44275
X29525Y45275
X29525Y46275
X29525Y43275
X29525Y42275
X29525Y41275
X28825Y41275
X28825Y42275
X28825Y43275
X28825Y40275
X28325Y39575
X28825Y39275
X29525Y39275
X29525Y40275
X29525Y38275
X29525Y37275
X28825Y37275
X28825Y38275
X26275Y38775
X24575Y42455
X24575Y42995
X25075Y43025
X26075Y49525
X27075Y49525
X26275Y54475
X23675Y55275
X23125Y55875
X22496Y55275
X22725Y53675
X22575Y53375
X22775Y57525
X22775Y58125
X22775Y58625
X22925Y59175
X22605Y59216
X21786Y59005
X21745Y59325
X21425Y59325
X21335Y59786
X21325Y60275
X21335Y60770
X22075Y61775
X22575Y61775
X23075Y61775
X23005Y60965
X22145Y60967
X23825Y61075
X24425Y60925
X23824Y60375
X23805Y60045
X23805Y59695
X23264Y59155
X24575Y58695
X25075Y58725
X24575Y58155
X25025Y59975
X26025Y59675
X26025Y60325
X25375Y61475
X25375Y62075
X23825Y61775
X19775Y61075
X19775Y60475
X12175Y46375
X12175Y45775
X11225Y45225
X10625Y45375
X10624Y44675
X10605Y44345
X10605Y43995
X10064Y43455
X9725Y43475
X9405Y43516
X9575Y42925
X9575Y42425
X9575Y41825
X9925Y40175
X10475Y39575
X9296Y39575
X9525Y37975
X9375Y37675
X11375Y42455
X11375Y42995
X11875Y43025
X11825Y44275
X12825Y43975
X12825Y44625
X10625Y46075
X9875Y46075
X9375Y46075
X8875Y46075
X8945Y45267
X9805Y45265
X8545Y43625
X8225Y43625
X8135Y44086
X8125Y44575
X8135Y45070
X6575Y44775
X6575Y45375
X8586Y43305
X13075Y38775
X19775Y44775
X19775Y45375
X31275Y33825
X32275Y33825
X33275Y33825
X34275Y33825
X35275Y33825
X36275Y33825
X37275Y33825
X38275Y33825
X39275Y33825
X40275Y33825
X42025Y31575
X42025Y30575
X42025Y29575
X42025Y28575
X42025Y27575
X42025Y26575
X42025Y25575
X42025Y24575
X41525Y23875
X42025Y23575
X42025Y22575
X42025Y21575
X39475Y23075
X36875Y23875
X36325Y24475
X35696Y23875
X35925Y22275
X35775Y21975
X35975Y26125
X35975Y26725
X35975Y27225
X36125Y27775
X35805Y27816
X36464Y27755
X37005Y28295
X37005Y28645
X37024Y28975
X37025Y29675
X37625Y29525
X37025Y30375
X36275Y30375
X35775Y30375
X35275Y30375
X35345Y29567
X36205Y29565
X34945Y27925
X34625Y27925
X34535Y28386
X34525Y28875
X34535Y29370
X34986Y27605
X32975Y29075
X32975Y29675
X37775Y27295
X38275Y27325
X37775Y26755
X38225Y28575
X39225Y28275
X39225Y28925
X38575Y30075
X38575Y30675
X38575Y14975
X38575Y14375
X39225Y13225
X39225Y12575
X38225Y12875
X38275Y11625
X37775Y11595
X37775Y11055
T02
X3375Y3375
X3375Y4375
X4375Y4375
X4375Y3375
X5375Y3375
X5375Y4375
X5875Y5375
X6375Y4375
X6875Y5375
X7875Y5375
X7375Y4375
X8375Y4375
X8875Y5375
X9375Y4375
X9875Y5375
X10375Y4375
X10875Y5375
X11375Y4375
X11875Y5375
X12375Y4375
X12875Y5375
X13375Y4375
X13375Y3375
X12375Y3375
X11375Y3375
X10375Y3375
X9375Y3375
X8375Y3375
X7375Y3375
X6375Y3375
X14375Y3375
X14375Y4375
X15375Y4375
X15375Y3375
X16575Y3375
X16575Y4375
X17575Y4375
X17575Y3375
X18575Y3375
X18575Y4375
X19075Y5375
X19575Y4375
X20075Y5375
X20575Y4375
X21075Y5375
X22075Y5375
X21575Y4375
X22575Y4375
X23075Y5375
X23575Y4375
X24075Y5375
X24575Y4375
X25075Y5375
X25575Y4375
X26075Y5375
X26575Y4375
X26575Y3375
X25575Y3375
X24575Y3375
X23575Y3375
X22575Y3375
X21575Y3375
X20575Y3375
X19575Y3375
X27575Y3375
X27575Y4375
X28575Y4375
X28575Y3375
X29775Y3375
X29775Y4375
X30775Y4375
X30775Y3375
X31775Y3375
X31775Y4375
X32275Y5375
X32775Y4375
X33275Y5375
X33775Y4375
X34275Y5375
X34775Y4375
X35275Y5375
X36275Y5375
X35775Y4375
X36775Y4375
X37275Y5375
X37775Y4375
X38275Y5375
X38775Y4375
X39275Y5375
X39775Y4375
X39775Y3375
X38775Y3375
X37775Y3375
X36775Y3375
X35775Y3375
X34775Y3375
X33775Y3375
X32775Y3375
X40775Y3375
X40775Y4375
X41775Y4375
X41775Y3375
X41775Y19075
X41775Y20075
X40775Y20075
X40775Y19075
X39775Y19075
X39775Y20075
X38775Y20075
X38775Y19075
X37775Y19075
X37775Y20075
X36775Y20075
X36775Y19075
X35775Y19075
X35775Y20075
X34775Y20075
X34775Y19075
X33775Y19075
X33775Y20075
X32775Y20075
X32775Y19075
X31775Y19075
X31775Y20075
X30775Y20075
X30775Y19075
X29775Y19075
X29775Y20075
X28575Y20075
X28575Y19075
X27575Y19075
X27575Y20075
X26575Y20075
X26575Y19075
X25575Y19075
X25575Y20075
X24575Y20075
X24575Y19075
X23575Y19075
X23575Y20075
X22575Y20075
X22575Y19075
X21575Y19075
X21575Y20075
X20575Y20075
X20575Y19075
X19575Y19075
X19575Y20075
X18575Y20075
X18575Y19075
X17575Y19075
X17575Y20075
X16575Y20075
X16575Y19075
X15375Y19075
X15375Y20075
X14375Y20075
X14375Y19075
X13375Y19075
X13375Y20075
X12375Y20075
X12375Y19075
X11375Y19075
X11375Y20075
X10375Y20075
X10375Y19075
X9375Y19075
X9375Y20075
X8375Y20075
X8375Y19075
X7375Y19075
X7375Y20075
X6375Y20075
X6375Y19075
X5375Y19075
X5375Y20075
X4375Y20075
X4375Y19075
X3375Y19075
X3375Y20075
X5875Y21075
X6875Y21075
X7875Y21075
X8875Y21075
X9875Y21075
X10875Y21075
X11875Y21075
X12875Y21075
X19075Y21075
X20075Y21075
X21075Y21075
X22075Y21075
X23075Y21075
X24075Y21075
X25075Y21075
X26075Y21075
X32275Y21075
X33275Y21075
X34275Y21075
X35275Y21075
X36275Y21075
X37275Y21075
X38275Y21075
X39275Y21075
X38775Y34775
X38775Y35775
X38275Y36775
X37775Y35775
X37775Y34775
X36775Y34775
X36775Y35775
X35775Y35775
X35775Y34775
X34775Y34775
X34775Y35775
X34275Y36775
X33775Y35775
X33775Y34775
X32775Y34775
X32775Y35775
X32275Y36775
X31775Y35775
X31775Y34775
X30775Y34775
X30775Y35775
X29775Y35775
X29775Y34775
X28575Y34775
X28575Y35775
X27575Y35775
X27575Y34775
X26575Y34775
X26575Y35775
X26075Y36775
X25575Y35775
X25575Y34775
X24575Y34775
X24575Y35775
X24075Y36775
X23575Y35775
X23575Y34775
X22575Y34775
X22575Y35775
X21575Y35775
X21575Y34775
X20575Y34775
X20575Y35775
X20075Y36775
X19575Y35775
X19575Y34775
X18575Y34775
X18575Y35775
X19075Y36775
X17575Y35775
X17575Y34775
X16575Y34775
X16575Y35775
X15375Y35775
X15375Y34775
X14375Y34775
X14375Y35775
X13375Y35775
X13375Y34775
X12375Y34775
X12375Y35775
X11875Y36775
X11375Y35775
X11375Y34775
X10375Y34775
X10375Y35775
X9875Y36775
X9375Y35775
X9375Y34775
X8375Y34775
X8375Y35775
X7375Y35775
X7375Y34775
X6375Y34775
X6375Y35775
X5875Y36775
X5375Y35775
X5375Y34775
X4375Y34775
X4375Y35775
X3375Y35775
X3375Y34775
X6875Y36775
X7875Y36775
X8875Y36775
X10875Y36775
X12875Y36775
X21075Y36775
X22075Y36775
X23075Y36775
X25075Y36775
X33275Y36775
X35275Y36775
X36275Y36775
X37275Y36775
X39275Y36775
X39775Y35775
X39775Y34775
X40775Y34775
X40775Y35775
X41775Y35775
X41775Y34775
X41775Y50475
X41775Y51475
X40775Y51475
X40775Y50475
X39775Y50475
X39775Y51475
X39275Y52475
X38775Y51475
X38275Y52475
X37775Y51475
X37275Y52475
X36775Y51475
X35775Y51475
X35275Y52475
X36275Y52475
X34775Y51475
X34275Y52475
X33775Y51475
X33275Y52475
X32775Y51475
X32275Y52475
X31775Y51475
X31775Y50475
X30775Y50475
X30775Y51475
X29775Y51475
X29775Y50475
X28575Y50475
X28575Y51475
X27575Y51475
X27575Y50475
X26575Y50475
X26575Y51475
X26075Y52475
X25575Y51475
X25075Y52475
X24575Y51475
X24075Y52475
X23575Y51475
X23075Y52475
X22575Y51475
X21575Y51475
X21075Y52475
X22075Y52475
X20575Y51475
X20075Y52475
X19575Y51475
X19075Y52475
X18575Y51475
X18575Y50475
X17575Y50475
X17575Y51475
X16575Y51475
X16575Y50475
X15375Y50475
X15375Y51475
X14375Y51475
X14375Y50475
X13375Y50475
X13375Y51475
X12875Y52475
X12375Y51475
X11875Y52475
X11375Y51475
X10875Y52475
X10375Y51475
X9875Y52475
X9375Y51475
X8875Y52475
X8375Y51475
X7375Y51475
X6875Y52475
X7875Y52475
X6375Y51475
X5875Y52475
X5375Y51475
X5375Y50475
X4375Y50475
X4375Y51475
X3375Y51475
X3375Y50475
X6375Y50475
X7375Y50475
X8375Y50475
X9375Y50475
X10375Y50475
X11375Y50475
X12375Y50475
X19575Y50475
X20575Y50475
X21575Y50475
X22575Y50475
X23575Y50475
X24575Y50475
X25575Y50475
X32775Y50475
X33775Y50475
X34775Y50475
X35775Y50475
X36775Y50475
X37775Y50475
X38775Y50475
T03
X41275Y48775
X30275Y48775
X28075Y48775
X17075Y48775
X14875Y48775
X3875Y48775
X3875Y33075
X14875Y33075
X17075Y33075
X28075Y33075
X30275Y33075
X41275Y33075
X41275Y17375
X30275Y17375
X28075Y17375
X17075Y17375
X14875Y17375
X3875Y17375
X3875Y64475
X14875Y64475
X17075Y64475
X28075Y64475
X30275Y64475
X41275Y64475
M30
