G04 EAGLE Gerber RS-274X export*
G75*
%MOMM*%
%FSLAX34Y34*%
%LPD*%
%INSoldermask Top*%
%IPPOS*%
%AMOC8*
5,1,8,0,0,1.08239X$1,22.5*%
G01*
%ADD10C,0.503200*%
%ADD11C,2.082800*%
%ADD12C,3.505200*%
%ADD13C,0.838200*%
%ADD14R,0.838200X1.473200*%
%ADD15C,1.203200*%
%ADD16C,1.270000*%
%ADD17C,1.703200*%


D10*
X142600Y284200D03*
X142600Y279200D03*
X142600Y274200D03*
X142600Y269200D03*
X142600Y264200D03*
X142600Y259200D03*
X142600Y254200D03*
X142600Y249200D03*
X147600Y284200D03*
X147600Y289200D03*
X152600Y289200D03*
X162600Y289200D03*
X157600Y289200D03*
X167600Y289200D03*
X172600Y289200D03*
X177600Y289200D03*
X182600Y289200D03*
X182600Y284200D03*
X187600Y284200D03*
X182600Y279200D03*
X187600Y279200D03*
X182600Y274200D03*
X187600Y274200D03*
X182600Y269200D03*
X187600Y269200D03*
X182600Y264200D03*
X187600Y264200D03*
X187600Y259200D03*
X182600Y254200D03*
X187600Y254200D03*
X147600Y244200D03*
X147600Y254200D03*
X147600Y264200D03*
X147600Y269200D03*
X147600Y274200D03*
X147600Y279200D03*
X152600Y244200D03*
X157600Y244200D03*
X162600Y244200D03*
X167600Y244200D03*
X172600Y244200D03*
X177600Y244200D03*
X182600Y244200D03*
X147600Y249200D03*
X152600Y249200D03*
X162600Y249200D03*
X167600Y249200D03*
X177600Y249200D03*
X182600Y249200D03*
X187600Y249200D03*
D11*
X317500Y38100D03*
X292100Y38100D03*
X266700Y38100D03*
X241300Y38100D03*
X215900Y38100D03*
X190500Y38100D03*
X165100Y38100D03*
X139700Y38100D03*
X114300Y38100D03*
X88900Y38100D03*
X63500Y38100D03*
X38100Y38100D03*
X12700Y38100D03*
X12700Y12700D03*
X38100Y12700D03*
X63500Y12700D03*
X88900Y12700D03*
X114300Y12700D03*
X139700Y12700D03*
X165100Y12700D03*
X190500Y12700D03*
X215900Y12700D03*
X241300Y12700D03*
X266700Y12700D03*
X292100Y12700D03*
X317500Y12700D03*
D12*
X25400Y368300D03*
X304800Y368300D03*
D13*
X317500Y63500D03*
X6350Y387350D03*
D11*
X63500Y63500D03*
X88900Y63500D03*
X114300Y63500D03*
X139700Y63500D03*
X165100Y63500D03*
X190500Y63500D03*
X215900Y63500D03*
X241300Y63500D03*
X266700Y63500D03*
D14*
X297434Y63500D03*
X289306Y63500D03*
D10*
X477880Y284200D03*
X477880Y279200D03*
X477880Y274200D03*
X477880Y269200D03*
X477880Y264200D03*
X477880Y259200D03*
X477880Y254200D03*
X477880Y249200D03*
X482880Y284200D03*
X482880Y289200D03*
X487880Y289200D03*
X497880Y289200D03*
X492880Y289200D03*
X502880Y289200D03*
X507880Y289200D03*
X512880Y289200D03*
X517880Y289200D03*
X517880Y284200D03*
X522880Y284200D03*
X517880Y279200D03*
X522880Y279200D03*
X517880Y274200D03*
X522880Y274200D03*
X517880Y269200D03*
X522880Y269200D03*
X517880Y264200D03*
X522880Y264200D03*
X522880Y259200D03*
X517880Y254200D03*
X522880Y254200D03*
X482880Y244200D03*
X482880Y254200D03*
X482880Y264200D03*
X482880Y269200D03*
X482880Y274200D03*
X482880Y279200D03*
X487880Y244200D03*
X492880Y244200D03*
X497880Y244200D03*
X502880Y244200D03*
X507880Y244200D03*
X512880Y244200D03*
X517880Y244200D03*
X482880Y249200D03*
X487880Y249200D03*
X497880Y249200D03*
X502880Y249200D03*
X512880Y249200D03*
X517880Y249200D03*
X522880Y249200D03*
D11*
X652780Y38100D03*
X627380Y38100D03*
X601980Y38100D03*
X576580Y38100D03*
X551180Y38100D03*
X525780Y38100D03*
X500380Y38100D03*
X474980Y38100D03*
X449580Y38100D03*
X424180Y38100D03*
X398780Y38100D03*
X373380Y38100D03*
X347980Y38100D03*
X347980Y12700D03*
X373380Y12700D03*
X398780Y12700D03*
X424180Y12700D03*
X449580Y12700D03*
X474980Y12700D03*
X500380Y12700D03*
X525780Y12700D03*
X551180Y12700D03*
X576580Y12700D03*
X601980Y12700D03*
X627380Y12700D03*
X652780Y12700D03*
D12*
X360680Y368300D03*
X640080Y368300D03*
D13*
X652780Y63500D03*
X341630Y387350D03*
D11*
X398780Y63500D03*
X424180Y63500D03*
X449580Y63500D03*
X474980Y63500D03*
X500380Y63500D03*
X525780Y63500D03*
X551180Y63500D03*
X576580Y63500D03*
X601980Y63500D03*
D14*
X632714Y63500D03*
X624586Y63500D03*
D10*
X813160Y284200D03*
X813160Y279200D03*
X813160Y274200D03*
X813160Y269200D03*
X813160Y264200D03*
X813160Y259200D03*
X813160Y254200D03*
X813160Y249200D03*
X818160Y284200D03*
X818160Y289200D03*
X823160Y289200D03*
X833160Y289200D03*
X828160Y289200D03*
X838160Y289200D03*
X843160Y289200D03*
X848160Y289200D03*
X853160Y289200D03*
X853160Y284200D03*
X858160Y284200D03*
X853160Y279200D03*
X858160Y279200D03*
X853160Y274200D03*
X858160Y274200D03*
X853160Y269200D03*
X858160Y269200D03*
X853160Y264200D03*
X858160Y264200D03*
X858160Y259200D03*
X853160Y254200D03*
X858160Y254200D03*
X818160Y244200D03*
X818160Y254200D03*
X818160Y264200D03*
X818160Y269200D03*
X818160Y274200D03*
X818160Y279200D03*
X823160Y244200D03*
X828160Y244200D03*
X833160Y244200D03*
X838160Y244200D03*
X843160Y244200D03*
X848160Y244200D03*
X853160Y244200D03*
X818160Y249200D03*
X823160Y249200D03*
X833160Y249200D03*
X838160Y249200D03*
X848160Y249200D03*
X853160Y249200D03*
X858160Y249200D03*
D11*
X988060Y38100D03*
X962660Y38100D03*
X937260Y38100D03*
X911860Y38100D03*
X886460Y38100D03*
X861060Y38100D03*
X835660Y38100D03*
X810260Y38100D03*
X784860Y38100D03*
X759460Y38100D03*
X734060Y38100D03*
X708660Y38100D03*
X683260Y38100D03*
X683260Y12700D03*
X708660Y12700D03*
X734060Y12700D03*
X759460Y12700D03*
X784860Y12700D03*
X810260Y12700D03*
X835660Y12700D03*
X861060Y12700D03*
X886460Y12700D03*
X911860Y12700D03*
X937260Y12700D03*
X962660Y12700D03*
X988060Y12700D03*
D12*
X695960Y368300D03*
X975360Y368300D03*
D13*
X988060Y63500D03*
X676910Y387350D03*
D11*
X734060Y63500D03*
X759460Y63500D03*
X784860Y63500D03*
X810260Y63500D03*
X835660Y63500D03*
X861060Y63500D03*
X886460Y63500D03*
X911860Y63500D03*
X937260Y63500D03*
D14*
X967994Y63500D03*
X959866Y63500D03*
D10*
X142600Y682980D03*
X142600Y677980D03*
X142600Y672980D03*
X142600Y667980D03*
X142600Y662980D03*
X142600Y657980D03*
X142600Y652980D03*
X142600Y647980D03*
X147600Y682980D03*
X147600Y687980D03*
X152600Y687980D03*
X162600Y687980D03*
X157600Y687980D03*
X167600Y687980D03*
X172600Y687980D03*
X177600Y687980D03*
X182600Y687980D03*
X182600Y682980D03*
X187600Y682980D03*
X182600Y677980D03*
X187600Y677980D03*
X182600Y672980D03*
X187600Y672980D03*
X182600Y667980D03*
X187600Y667980D03*
X182600Y662980D03*
X187600Y662980D03*
X187600Y657980D03*
X182600Y652980D03*
X187600Y652980D03*
X147600Y642980D03*
X147600Y652980D03*
X147600Y662980D03*
X147600Y667980D03*
X147600Y672980D03*
X147600Y677980D03*
X152600Y642980D03*
X157600Y642980D03*
X162600Y642980D03*
X167600Y642980D03*
X172600Y642980D03*
X177600Y642980D03*
X182600Y642980D03*
X147600Y647980D03*
X152600Y647980D03*
X162600Y647980D03*
X167600Y647980D03*
X177600Y647980D03*
X182600Y647980D03*
X187600Y647980D03*
D11*
X317500Y436880D03*
X292100Y436880D03*
X266700Y436880D03*
X241300Y436880D03*
X215900Y436880D03*
X190500Y436880D03*
X165100Y436880D03*
X139700Y436880D03*
X114300Y436880D03*
X88900Y436880D03*
X63500Y436880D03*
X38100Y436880D03*
X12700Y436880D03*
X12700Y411480D03*
X38100Y411480D03*
X63500Y411480D03*
X88900Y411480D03*
X114300Y411480D03*
X139700Y411480D03*
X165100Y411480D03*
X190500Y411480D03*
X215900Y411480D03*
X241300Y411480D03*
X266700Y411480D03*
X292100Y411480D03*
X317500Y411480D03*
D12*
X25400Y767080D03*
X304800Y767080D03*
D13*
X317500Y462280D03*
X6350Y786130D03*
D11*
X63500Y462280D03*
X88900Y462280D03*
X114300Y462280D03*
X139700Y462280D03*
X165100Y462280D03*
X190500Y462280D03*
X215900Y462280D03*
X241300Y462280D03*
X266700Y462280D03*
D14*
X297434Y462280D03*
X289306Y462280D03*
D10*
X477880Y682980D03*
X477880Y677980D03*
X477880Y672980D03*
X477880Y667980D03*
X477880Y662980D03*
X477880Y657980D03*
X477880Y652980D03*
X477880Y647980D03*
X482880Y682980D03*
X482880Y687980D03*
X487880Y687980D03*
X497880Y687980D03*
X492880Y687980D03*
X502880Y687980D03*
X507880Y687980D03*
X512880Y687980D03*
X517880Y687980D03*
X517880Y682980D03*
X522880Y682980D03*
X517880Y677980D03*
X522880Y677980D03*
X517880Y672980D03*
X522880Y672980D03*
X517880Y667980D03*
X522880Y667980D03*
X517880Y662980D03*
X522880Y662980D03*
X522880Y657980D03*
X517880Y652980D03*
X522880Y652980D03*
X482880Y642980D03*
X482880Y652980D03*
X482880Y662980D03*
X482880Y667980D03*
X482880Y672980D03*
X482880Y677980D03*
X487880Y642980D03*
X492880Y642980D03*
X497880Y642980D03*
X502880Y642980D03*
X507880Y642980D03*
X512880Y642980D03*
X517880Y642980D03*
X482880Y647980D03*
X487880Y647980D03*
X497880Y647980D03*
X502880Y647980D03*
X512880Y647980D03*
X517880Y647980D03*
X522880Y647980D03*
D11*
X652780Y436880D03*
X627380Y436880D03*
X601980Y436880D03*
X576580Y436880D03*
X551180Y436880D03*
X525780Y436880D03*
X500380Y436880D03*
X474980Y436880D03*
X449580Y436880D03*
X424180Y436880D03*
X398780Y436880D03*
X373380Y436880D03*
X347980Y436880D03*
X347980Y411480D03*
X373380Y411480D03*
X398780Y411480D03*
X424180Y411480D03*
X449580Y411480D03*
X474980Y411480D03*
X500380Y411480D03*
X525780Y411480D03*
X551180Y411480D03*
X576580Y411480D03*
X601980Y411480D03*
X627380Y411480D03*
X652780Y411480D03*
D12*
X360680Y767080D03*
X640080Y767080D03*
D13*
X652780Y462280D03*
X341630Y786130D03*
D11*
X398780Y462280D03*
X424180Y462280D03*
X449580Y462280D03*
X474980Y462280D03*
X500380Y462280D03*
X525780Y462280D03*
X551180Y462280D03*
X576580Y462280D03*
X601980Y462280D03*
D14*
X632714Y462280D03*
X624586Y462280D03*
D10*
X813160Y682980D03*
X813160Y677980D03*
X813160Y672980D03*
X813160Y667980D03*
X813160Y662980D03*
X813160Y657980D03*
X813160Y652980D03*
X813160Y647980D03*
X818160Y682980D03*
X818160Y687980D03*
X823160Y687980D03*
X833160Y687980D03*
X828160Y687980D03*
X838160Y687980D03*
X843160Y687980D03*
X848160Y687980D03*
X853160Y687980D03*
X853160Y682980D03*
X858160Y682980D03*
X853160Y677980D03*
X858160Y677980D03*
X853160Y672980D03*
X858160Y672980D03*
X853160Y667980D03*
X858160Y667980D03*
X853160Y662980D03*
X858160Y662980D03*
X858160Y657980D03*
X853160Y652980D03*
X858160Y652980D03*
X818160Y642980D03*
X818160Y652980D03*
X818160Y662980D03*
X818160Y667980D03*
X818160Y672980D03*
X818160Y677980D03*
X823160Y642980D03*
X828160Y642980D03*
X833160Y642980D03*
X838160Y642980D03*
X843160Y642980D03*
X848160Y642980D03*
X853160Y642980D03*
X818160Y647980D03*
X823160Y647980D03*
X833160Y647980D03*
X838160Y647980D03*
X848160Y647980D03*
X853160Y647980D03*
X858160Y647980D03*
D11*
X988060Y436880D03*
X962660Y436880D03*
X937260Y436880D03*
X911860Y436880D03*
X886460Y436880D03*
X861060Y436880D03*
X835660Y436880D03*
X810260Y436880D03*
X784860Y436880D03*
X759460Y436880D03*
X734060Y436880D03*
X708660Y436880D03*
X683260Y436880D03*
X683260Y411480D03*
X708660Y411480D03*
X734060Y411480D03*
X759460Y411480D03*
X784860Y411480D03*
X810260Y411480D03*
X835660Y411480D03*
X861060Y411480D03*
X886460Y411480D03*
X911860Y411480D03*
X937260Y411480D03*
X962660Y411480D03*
X988060Y411480D03*
D12*
X695960Y767080D03*
X975360Y767080D03*
D13*
X988060Y462280D03*
X676910Y786130D03*
D11*
X734060Y462280D03*
X759460Y462280D03*
X784860Y462280D03*
X810260Y462280D03*
X835660Y462280D03*
X861060Y462280D03*
X886460Y462280D03*
X911860Y462280D03*
X937260Y462280D03*
D14*
X967994Y462280D03*
X959866Y462280D03*
D10*
X142600Y1081760D03*
X142600Y1076760D03*
X142600Y1071760D03*
X142600Y1066760D03*
X142600Y1061760D03*
X142600Y1056760D03*
X142600Y1051760D03*
X142600Y1046760D03*
X147600Y1081760D03*
X147600Y1086760D03*
X152600Y1086760D03*
X162600Y1086760D03*
X157600Y1086760D03*
X167600Y1086760D03*
X172600Y1086760D03*
X177600Y1086760D03*
X182600Y1086760D03*
X182600Y1081760D03*
X187600Y1081760D03*
X182600Y1076760D03*
X187600Y1076760D03*
X182600Y1071760D03*
X187600Y1071760D03*
X182600Y1066760D03*
X187600Y1066760D03*
X182600Y1061760D03*
X187600Y1061760D03*
X187600Y1056760D03*
X182600Y1051760D03*
X187600Y1051760D03*
X147600Y1041760D03*
X147600Y1051760D03*
X147600Y1061760D03*
X147600Y1066760D03*
X147600Y1071760D03*
X147600Y1076760D03*
X152600Y1041760D03*
X157600Y1041760D03*
X162600Y1041760D03*
X167600Y1041760D03*
X172600Y1041760D03*
X177600Y1041760D03*
X182600Y1041760D03*
X147600Y1046760D03*
X152600Y1046760D03*
X162600Y1046760D03*
X167600Y1046760D03*
X177600Y1046760D03*
X182600Y1046760D03*
X187600Y1046760D03*
D11*
X317500Y835660D03*
X292100Y835660D03*
X266700Y835660D03*
X241300Y835660D03*
X215900Y835660D03*
X190500Y835660D03*
X165100Y835660D03*
X139700Y835660D03*
X114300Y835660D03*
X88900Y835660D03*
X63500Y835660D03*
X38100Y835660D03*
X12700Y835660D03*
X12700Y810260D03*
X38100Y810260D03*
X63500Y810260D03*
X88900Y810260D03*
X114300Y810260D03*
X139700Y810260D03*
X165100Y810260D03*
X190500Y810260D03*
X215900Y810260D03*
X241300Y810260D03*
X266700Y810260D03*
X292100Y810260D03*
X317500Y810260D03*
D12*
X25400Y1165860D03*
X304800Y1165860D03*
D13*
X317500Y861060D03*
X6350Y1184910D03*
D11*
X63500Y861060D03*
X88900Y861060D03*
X114300Y861060D03*
X139700Y861060D03*
X165100Y861060D03*
X190500Y861060D03*
X215900Y861060D03*
X241300Y861060D03*
X266700Y861060D03*
D14*
X297434Y861060D03*
X289306Y861060D03*
D10*
X477880Y1081760D03*
X477880Y1076760D03*
X477880Y1071760D03*
X477880Y1066760D03*
X477880Y1061760D03*
X477880Y1056760D03*
X477880Y1051760D03*
X477880Y1046760D03*
X482880Y1081760D03*
X482880Y1086760D03*
X487880Y1086760D03*
X497880Y1086760D03*
X492880Y1086760D03*
X502880Y1086760D03*
X507880Y1086760D03*
X512880Y1086760D03*
X517880Y1086760D03*
X517880Y1081760D03*
X522880Y1081760D03*
X517880Y1076760D03*
X522880Y1076760D03*
X517880Y1071760D03*
X522880Y1071760D03*
X517880Y1066760D03*
X522880Y1066760D03*
X517880Y1061760D03*
X522880Y1061760D03*
X522880Y1056760D03*
X517880Y1051760D03*
X522880Y1051760D03*
X482880Y1041760D03*
X482880Y1051760D03*
X482880Y1061760D03*
X482880Y1066760D03*
X482880Y1071760D03*
X482880Y1076760D03*
X487880Y1041760D03*
X492880Y1041760D03*
X497880Y1041760D03*
X502880Y1041760D03*
X507880Y1041760D03*
X512880Y1041760D03*
X517880Y1041760D03*
X482880Y1046760D03*
X487880Y1046760D03*
X497880Y1046760D03*
X502880Y1046760D03*
X512880Y1046760D03*
X517880Y1046760D03*
X522880Y1046760D03*
D11*
X652780Y835660D03*
X627380Y835660D03*
X601980Y835660D03*
X576580Y835660D03*
X551180Y835660D03*
X525780Y835660D03*
X500380Y835660D03*
X474980Y835660D03*
X449580Y835660D03*
X424180Y835660D03*
X398780Y835660D03*
X373380Y835660D03*
X347980Y835660D03*
X347980Y810260D03*
X373380Y810260D03*
X398780Y810260D03*
X424180Y810260D03*
X449580Y810260D03*
X474980Y810260D03*
X500380Y810260D03*
X525780Y810260D03*
X551180Y810260D03*
X576580Y810260D03*
X601980Y810260D03*
X627380Y810260D03*
X652780Y810260D03*
D12*
X360680Y1165860D03*
X640080Y1165860D03*
D13*
X652780Y861060D03*
X341630Y1184910D03*
D11*
X398780Y861060D03*
X424180Y861060D03*
X449580Y861060D03*
X474980Y861060D03*
X500380Y861060D03*
X525780Y861060D03*
X551180Y861060D03*
X576580Y861060D03*
X601980Y861060D03*
D14*
X632714Y861060D03*
X624586Y861060D03*
D10*
X813160Y1081760D03*
X813160Y1076760D03*
X813160Y1071760D03*
X813160Y1066760D03*
X813160Y1061760D03*
X813160Y1056760D03*
X813160Y1051760D03*
X813160Y1046760D03*
X818160Y1081760D03*
X818160Y1086760D03*
X823160Y1086760D03*
X833160Y1086760D03*
X828160Y1086760D03*
X838160Y1086760D03*
X843160Y1086760D03*
X848160Y1086760D03*
X853160Y1086760D03*
X853160Y1081760D03*
X858160Y1081760D03*
X853160Y1076760D03*
X858160Y1076760D03*
X853160Y1071760D03*
X858160Y1071760D03*
X853160Y1066760D03*
X858160Y1066760D03*
X853160Y1061760D03*
X858160Y1061760D03*
X858160Y1056760D03*
X853160Y1051760D03*
X858160Y1051760D03*
X818160Y1041760D03*
X818160Y1051760D03*
X818160Y1061760D03*
X818160Y1066760D03*
X818160Y1071760D03*
X818160Y1076760D03*
X823160Y1041760D03*
X828160Y1041760D03*
X833160Y1041760D03*
X838160Y1041760D03*
X843160Y1041760D03*
X848160Y1041760D03*
X853160Y1041760D03*
X818160Y1046760D03*
X823160Y1046760D03*
X833160Y1046760D03*
X838160Y1046760D03*
X848160Y1046760D03*
X853160Y1046760D03*
X858160Y1046760D03*
D11*
X988060Y835660D03*
X962660Y835660D03*
X937260Y835660D03*
X911860Y835660D03*
X886460Y835660D03*
X861060Y835660D03*
X835660Y835660D03*
X810260Y835660D03*
X784860Y835660D03*
X759460Y835660D03*
X734060Y835660D03*
X708660Y835660D03*
X683260Y835660D03*
X683260Y810260D03*
X708660Y810260D03*
X734060Y810260D03*
X759460Y810260D03*
X784860Y810260D03*
X810260Y810260D03*
X835660Y810260D03*
X861060Y810260D03*
X886460Y810260D03*
X911860Y810260D03*
X937260Y810260D03*
X962660Y810260D03*
X988060Y810260D03*
D12*
X695960Y1165860D03*
X975360Y1165860D03*
D13*
X988060Y861060D03*
X676910Y1184910D03*
D11*
X734060Y861060D03*
X759460Y861060D03*
X784860Y861060D03*
X810260Y861060D03*
X835660Y861060D03*
X861060Y861060D03*
X886460Y861060D03*
X911860Y861060D03*
X937260Y861060D03*
D14*
X967994Y861060D03*
X959866Y861060D03*
D10*
X142600Y1480540D03*
X142600Y1475540D03*
X142600Y1470540D03*
X142600Y1465540D03*
X142600Y1460540D03*
X142600Y1455540D03*
X142600Y1450540D03*
X142600Y1445540D03*
X147600Y1480540D03*
X147600Y1485540D03*
X152600Y1485540D03*
X162600Y1485540D03*
X157600Y1485540D03*
X167600Y1485540D03*
X172600Y1485540D03*
X177600Y1485540D03*
X182600Y1485540D03*
X182600Y1480540D03*
X187600Y1480540D03*
X182600Y1475540D03*
X187600Y1475540D03*
X182600Y1470540D03*
X187600Y1470540D03*
X182600Y1465540D03*
X187600Y1465540D03*
X182600Y1460540D03*
X187600Y1460540D03*
X187600Y1455540D03*
X182600Y1450540D03*
X187600Y1450540D03*
X147600Y1440540D03*
X147600Y1450540D03*
X147600Y1460540D03*
X147600Y1465540D03*
X147600Y1470540D03*
X147600Y1475540D03*
X152600Y1440540D03*
X157600Y1440540D03*
X162600Y1440540D03*
X167600Y1440540D03*
X172600Y1440540D03*
X177600Y1440540D03*
X182600Y1440540D03*
X147600Y1445540D03*
X152600Y1445540D03*
X162600Y1445540D03*
X167600Y1445540D03*
X177600Y1445540D03*
X182600Y1445540D03*
X187600Y1445540D03*
D11*
X317500Y1234440D03*
X292100Y1234440D03*
X266700Y1234440D03*
X241300Y1234440D03*
X215900Y1234440D03*
X190500Y1234440D03*
X165100Y1234440D03*
X139700Y1234440D03*
X114300Y1234440D03*
X88900Y1234440D03*
X63500Y1234440D03*
X38100Y1234440D03*
X12700Y1234440D03*
X12700Y1209040D03*
X38100Y1209040D03*
X63500Y1209040D03*
X88900Y1209040D03*
X114300Y1209040D03*
X139700Y1209040D03*
X165100Y1209040D03*
X190500Y1209040D03*
X215900Y1209040D03*
X241300Y1209040D03*
X266700Y1209040D03*
X292100Y1209040D03*
X317500Y1209040D03*
D12*
X25400Y1564640D03*
X304800Y1564640D03*
D13*
X317500Y1259840D03*
X6350Y1583690D03*
D11*
X63500Y1259840D03*
X88900Y1259840D03*
X114300Y1259840D03*
X139700Y1259840D03*
X165100Y1259840D03*
X190500Y1259840D03*
X215900Y1259840D03*
X241300Y1259840D03*
X266700Y1259840D03*
D14*
X297434Y1259840D03*
X289306Y1259840D03*
D10*
X477880Y1480540D03*
X477880Y1475540D03*
X477880Y1470540D03*
X477880Y1465540D03*
X477880Y1460540D03*
X477880Y1455540D03*
X477880Y1450540D03*
X477880Y1445540D03*
X482880Y1480540D03*
X482880Y1485540D03*
X487880Y1485540D03*
X497880Y1485540D03*
X492880Y1485540D03*
X502880Y1485540D03*
X507880Y1485540D03*
X512880Y1485540D03*
X517880Y1485540D03*
X517880Y1480540D03*
X522880Y1480540D03*
X517880Y1475540D03*
X522880Y1475540D03*
X517880Y1470540D03*
X522880Y1470540D03*
X517880Y1465540D03*
X522880Y1465540D03*
X517880Y1460540D03*
X522880Y1460540D03*
X522880Y1455540D03*
X517880Y1450540D03*
X522880Y1450540D03*
X482880Y1440540D03*
X482880Y1450540D03*
X482880Y1460540D03*
X482880Y1465540D03*
X482880Y1470540D03*
X482880Y1475540D03*
X487880Y1440540D03*
X492880Y1440540D03*
X497880Y1440540D03*
X502880Y1440540D03*
X507880Y1440540D03*
X512880Y1440540D03*
X517880Y1440540D03*
X482880Y1445540D03*
X487880Y1445540D03*
X497880Y1445540D03*
X502880Y1445540D03*
X512880Y1445540D03*
X517880Y1445540D03*
X522880Y1445540D03*
D11*
X652780Y1234440D03*
X627380Y1234440D03*
X601980Y1234440D03*
X576580Y1234440D03*
X551180Y1234440D03*
X525780Y1234440D03*
X500380Y1234440D03*
X474980Y1234440D03*
X449580Y1234440D03*
X424180Y1234440D03*
X398780Y1234440D03*
X373380Y1234440D03*
X347980Y1234440D03*
X347980Y1209040D03*
X373380Y1209040D03*
X398780Y1209040D03*
X424180Y1209040D03*
X449580Y1209040D03*
X474980Y1209040D03*
X500380Y1209040D03*
X525780Y1209040D03*
X551180Y1209040D03*
X576580Y1209040D03*
X601980Y1209040D03*
X627380Y1209040D03*
X652780Y1209040D03*
D12*
X360680Y1564640D03*
X640080Y1564640D03*
D13*
X652780Y1259840D03*
X341630Y1583690D03*
D11*
X398780Y1259840D03*
X424180Y1259840D03*
X449580Y1259840D03*
X474980Y1259840D03*
X500380Y1259840D03*
X525780Y1259840D03*
X551180Y1259840D03*
X576580Y1259840D03*
X601980Y1259840D03*
D14*
X632714Y1259840D03*
X624586Y1259840D03*
D10*
X813160Y1480540D03*
X813160Y1475540D03*
X813160Y1470540D03*
X813160Y1465540D03*
X813160Y1460540D03*
X813160Y1455540D03*
X813160Y1450540D03*
X813160Y1445540D03*
X818160Y1480540D03*
X818160Y1485540D03*
X823160Y1485540D03*
X833160Y1485540D03*
X828160Y1485540D03*
X838160Y1485540D03*
X843160Y1485540D03*
X848160Y1485540D03*
X853160Y1485540D03*
X853160Y1480540D03*
X858160Y1480540D03*
X853160Y1475540D03*
X858160Y1475540D03*
X853160Y1470540D03*
X858160Y1470540D03*
X853160Y1465540D03*
X858160Y1465540D03*
X853160Y1460540D03*
X858160Y1460540D03*
X858160Y1455540D03*
X853160Y1450540D03*
X858160Y1450540D03*
X818160Y1440540D03*
X818160Y1450540D03*
X818160Y1460540D03*
X818160Y1465540D03*
X818160Y1470540D03*
X818160Y1475540D03*
X823160Y1440540D03*
X828160Y1440540D03*
X833160Y1440540D03*
X838160Y1440540D03*
X843160Y1440540D03*
X848160Y1440540D03*
X853160Y1440540D03*
X818160Y1445540D03*
X823160Y1445540D03*
X833160Y1445540D03*
X838160Y1445540D03*
X848160Y1445540D03*
X853160Y1445540D03*
X858160Y1445540D03*
D11*
X988060Y1234440D03*
X962660Y1234440D03*
X937260Y1234440D03*
X911860Y1234440D03*
X886460Y1234440D03*
X861060Y1234440D03*
X835660Y1234440D03*
X810260Y1234440D03*
X784860Y1234440D03*
X759460Y1234440D03*
X734060Y1234440D03*
X708660Y1234440D03*
X683260Y1234440D03*
X683260Y1209040D03*
X708660Y1209040D03*
X734060Y1209040D03*
X759460Y1209040D03*
X784860Y1209040D03*
X810260Y1209040D03*
X835660Y1209040D03*
X861060Y1209040D03*
X886460Y1209040D03*
X911860Y1209040D03*
X937260Y1209040D03*
X962660Y1209040D03*
X988060Y1209040D03*
D12*
X695960Y1564640D03*
X975360Y1564640D03*
D13*
X988060Y1259840D03*
X676910Y1583690D03*
D11*
X734060Y1259840D03*
X759460Y1259840D03*
X784860Y1259840D03*
X810260Y1259840D03*
X835660Y1259840D03*
X861060Y1259840D03*
X886460Y1259840D03*
X911860Y1259840D03*
X937260Y1259840D03*
D14*
X967994Y1259840D03*
X959866Y1259840D03*
D15*
X68580Y1610995D03*
X931545Y1610995D03*
D16*
X59525Y-20955D02*
X59528Y-20733D01*
X59536Y-20511D01*
X59550Y-20289D01*
X59569Y-20067D01*
X59593Y-19847D01*
X59623Y-19626D01*
X59658Y-19407D01*
X59699Y-19188D01*
X59745Y-18971D01*
X59796Y-18755D01*
X59853Y-18540D01*
X59915Y-18326D01*
X59982Y-18115D01*
X60054Y-17904D01*
X60132Y-17696D01*
X60214Y-17490D01*
X60302Y-17286D01*
X60394Y-17083D01*
X60492Y-16884D01*
X60594Y-16687D01*
X60701Y-16492D01*
X60813Y-16300D01*
X60930Y-16111D01*
X61051Y-15924D01*
X61177Y-15741D01*
X61307Y-15561D01*
X61442Y-15384D01*
X61580Y-15211D01*
X61723Y-15041D01*
X61871Y-14874D01*
X62022Y-14711D01*
X62177Y-14552D01*
X62336Y-14397D01*
X62499Y-14246D01*
X62666Y-14098D01*
X62836Y-13955D01*
X63009Y-13817D01*
X63186Y-13682D01*
X63366Y-13552D01*
X63549Y-13426D01*
X63736Y-13305D01*
X63925Y-13188D01*
X64117Y-13076D01*
X64312Y-12969D01*
X64509Y-12867D01*
X64708Y-12769D01*
X64911Y-12677D01*
X65115Y-12589D01*
X65321Y-12507D01*
X65529Y-12429D01*
X65740Y-12357D01*
X65951Y-12290D01*
X66165Y-12228D01*
X66380Y-12171D01*
X66596Y-12120D01*
X66813Y-12074D01*
X67032Y-12033D01*
X67251Y-11998D01*
X67472Y-11968D01*
X67692Y-11944D01*
X67914Y-11925D01*
X68136Y-11911D01*
X68358Y-11903D01*
X68580Y-11900D01*
X68802Y-11903D01*
X69024Y-11911D01*
X69246Y-11925D01*
X69468Y-11944D01*
X69688Y-11968D01*
X69909Y-11998D01*
X70128Y-12033D01*
X70347Y-12074D01*
X70564Y-12120D01*
X70780Y-12171D01*
X70995Y-12228D01*
X71209Y-12290D01*
X71420Y-12357D01*
X71631Y-12429D01*
X71839Y-12507D01*
X72045Y-12589D01*
X72249Y-12677D01*
X72452Y-12769D01*
X72651Y-12867D01*
X72848Y-12969D01*
X73043Y-13076D01*
X73235Y-13188D01*
X73424Y-13305D01*
X73611Y-13426D01*
X73794Y-13552D01*
X73974Y-13682D01*
X74151Y-13817D01*
X74324Y-13955D01*
X74494Y-14098D01*
X74661Y-14246D01*
X74824Y-14397D01*
X74983Y-14552D01*
X75138Y-14711D01*
X75289Y-14874D01*
X75437Y-15041D01*
X75580Y-15211D01*
X75718Y-15384D01*
X75853Y-15561D01*
X75983Y-15741D01*
X76109Y-15924D01*
X76230Y-16111D01*
X76347Y-16300D01*
X76459Y-16492D01*
X76566Y-16687D01*
X76668Y-16884D01*
X76766Y-17083D01*
X76858Y-17286D01*
X76946Y-17490D01*
X77028Y-17696D01*
X77106Y-17904D01*
X77178Y-18115D01*
X77245Y-18326D01*
X77307Y-18540D01*
X77364Y-18755D01*
X77415Y-18971D01*
X77461Y-19188D01*
X77502Y-19407D01*
X77537Y-19626D01*
X77567Y-19847D01*
X77591Y-20067D01*
X77610Y-20289D01*
X77624Y-20511D01*
X77632Y-20733D01*
X77635Y-20955D01*
X77632Y-21177D01*
X77624Y-21399D01*
X77610Y-21621D01*
X77591Y-21843D01*
X77567Y-22063D01*
X77537Y-22284D01*
X77502Y-22503D01*
X77461Y-22722D01*
X77415Y-22939D01*
X77364Y-23155D01*
X77307Y-23370D01*
X77245Y-23584D01*
X77178Y-23795D01*
X77106Y-24006D01*
X77028Y-24214D01*
X76946Y-24420D01*
X76858Y-24624D01*
X76766Y-24827D01*
X76668Y-25026D01*
X76566Y-25223D01*
X76459Y-25418D01*
X76347Y-25610D01*
X76230Y-25799D01*
X76109Y-25986D01*
X75983Y-26169D01*
X75853Y-26349D01*
X75718Y-26526D01*
X75580Y-26699D01*
X75437Y-26869D01*
X75289Y-27036D01*
X75138Y-27199D01*
X74983Y-27358D01*
X74824Y-27513D01*
X74661Y-27664D01*
X74494Y-27812D01*
X74324Y-27955D01*
X74151Y-28093D01*
X73974Y-28228D01*
X73794Y-28358D01*
X73611Y-28484D01*
X73424Y-28605D01*
X73235Y-28722D01*
X73043Y-28834D01*
X72848Y-28941D01*
X72651Y-29043D01*
X72452Y-29141D01*
X72249Y-29233D01*
X72045Y-29321D01*
X71839Y-29403D01*
X71631Y-29481D01*
X71420Y-29553D01*
X71209Y-29620D01*
X70995Y-29682D01*
X70780Y-29739D01*
X70564Y-29790D01*
X70347Y-29836D01*
X70128Y-29877D01*
X69909Y-29912D01*
X69688Y-29942D01*
X69468Y-29966D01*
X69246Y-29985D01*
X69024Y-29999D01*
X68802Y-30007D01*
X68580Y-30010D01*
X68358Y-30007D01*
X68136Y-29999D01*
X67914Y-29985D01*
X67692Y-29966D01*
X67472Y-29942D01*
X67251Y-29912D01*
X67032Y-29877D01*
X66813Y-29836D01*
X66596Y-29790D01*
X66380Y-29739D01*
X66165Y-29682D01*
X65951Y-29620D01*
X65740Y-29553D01*
X65529Y-29481D01*
X65321Y-29403D01*
X65115Y-29321D01*
X64911Y-29233D01*
X64708Y-29141D01*
X64509Y-29043D01*
X64312Y-28941D01*
X64117Y-28834D01*
X63925Y-28722D01*
X63736Y-28605D01*
X63549Y-28484D01*
X63366Y-28358D01*
X63186Y-28228D01*
X63009Y-28093D01*
X62836Y-27955D01*
X62666Y-27812D01*
X62499Y-27664D01*
X62336Y-27513D01*
X62177Y-27358D01*
X62022Y-27199D01*
X61871Y-27036D01*
X61723Y-26869D01*
X61580Y-26699D01*
X61442Y-26526D01*
X61307Y-26349D01*
X61177Y-26169D01*
X61051Y-25986D01*
X60930Y-25799D01*
X60813Y-25610D01*
X60701Y-25418D01*
X60594Y-25223D01*
X60492Y-25026D01*
X60394Y-24827D01*
X60302Y-24624D01*
X60214Y-24420D01*
X60132Y-24214D01*
X60054Y-24006D01*
X59982Y-23795D01*
X59915Y-23584D01*
X59853Y-23370D01*
X59796Y-23155D01*
X59745Y-22939D01*
X59699Y-22722D01*
X59658Y-22503D01*
X59623Y-22284D01*
X59593Y-22063D01*
X59569Y-21843D01*
X59550Y-21621D01*
X59536Y-21399D01*
X59528Y-21177D01*
X59525Y-20955D01*
D17*
X68580Y-20955D03*
M02*
