M48
;GenerationSoftware,Autodesk,EAGLE,9.5.2*%
;CreationDate,2020-06-03T18:40:18Z*%
FMAT,2
ICI,OFF
METRIC,TZ,000.000
T3C0.305
T2C1.016
T1C3.302
%
G90
M71
T1
X97536Y156464
X2540Y36830
X30480Y36830
X36068Y36830
X64008Y36830
X69596Y36830
X97536Y36830
X2540Y76708
X30480Y76708
X36068Y76708
X64008Y76708
X69596Y76708
X97536Y76708
X2540Y116586
X30480Y116586
X36068Y116586
X64008Y116586
X69596Y116586
X97536Y116586
X2540Y156464
X30480Y156464
X36068Y156464
X64008Y156464
X69596Y156464
T2
X37338Y83566
X31750Y3810
X29210Y3810
X26670Y3810
X24130Y3810
X21590Y3810
X19050Y3810
X16510Y3810
X13970Y3810
X11430Y3810
X8890Y3810
X6350Y3810
X3810Y3810
X1270Y3810
X1270Y1270
X3810Y1270
X6350Y1270
X8890Y1270
X11430Y1270
X13970Y1270
X16510Y1270
X19050Y1270
X21590Y1270
X24130Y1270
X26670Y1270
X29210Y1270
X31750Y1270
X6350Y6350
X8890Y6350
X11430Y6350
X13970Y6350
X16510Y6350
X19050Y6350
X21590Y6350
X24130Y6350
X26670Y6350
X65278Y3810
X62738Y3810
X60198Y3810
X57658Y3810
X55118Y3810
X52578Y3810
X50038Y3810
X47498Y3810
X44958Y3810
X42418Y3810
X39878Y3810
X37338Y3810
X34798Y3810
X34798Y1270
X37338Y1270
X39878Y1270
X42418Y1270
X44958Y1270
X47498Y1270
X50038Y1270
X52578Y1270
X55118Y1270
X57658Y1270
X60198Y1270
X62738Y1270
X65278Y1270
X39878Y6350
X42418Y6350
X44958Y6350
X47498Y6350
X50038Y6350
X52578Y6350
X55118Y6350
X57658Y6350
X60198Y6350
X98806Y3810
X96266Y3810
X93726Y3810
X91186Y3810
X88646Y3810
X86106Y3810
X83566Y3810
X81026Y3810
X78486Y3810
X75946Y3810
X73406Y3810
X70866Y3810
X68326Y3810
X68326Y1270
X70866Y1270
X73406Y1270
X75946Y1270
X78486Y1270
X81026Y1270
X83566Y1270
X86106Y1270
X88646Y1270
X91186Y1270
X93726Y1270
X96266Y1270
X98806Y1270
X73406Y6350
X75946Y6350
X78486Y6350
X81026Y6350
X83566Y6350
X86106Y6350
X88646Y6350
X91186Y6350
X93726Y6350
X31750Y43688
X29210Y43688
X26670Y43688
X24130Y43688
X21590Y43688
X19050Y43688
X16510Y43688
X13970Y43688
X11430Y43688
X8890Y43688
X6350Y43688
X3810Y43688
X1270Y43688
X1270Y41148
X3810Y41148
X6350Y41148
X8890Y41148
X11430Y41148
X13970Y41148
X16510Y41148
X19050Y41148
X21590Y41148
X24130Y41148
X26670Y41148
X29210Y41148
X31750Y41148
X6350Y46228
X8890Y46228
X11430Y46228
X13970Y46228
X16510Y46228
X19050Y46228
X21590Y46228
X24130Y46228
X26670Y46228
X65278Y43688
X62738Y43688
X60198Y43688
X57658Y43688
X55118Y43688
X52578Y43688
X50038Y43688
X47498Y43688
X44958Y43688
X42418Y43688
X39878Y43688
X37338Y43688
X34798Y43688
X34798Y41148
X37338Y41148
X39878Y41148
X42418Y41148
X44958Y41148
X47498Y41148
X50038Y41148
X52578Y41148
X55118Y41148
X57658Y41148
X60198Y41148
X62738Y41148
X65278Y41148
X39878Y46228
X42418Y46228
X44958Y46228
X47498Y46228
X50038Y46228
X52578Y46228
X55118Y46228
X57658Y46228
X60198Y46228
X98806Y43688
X96266Y43688
X93726Y43688
X91186Y43688
X88646Y43688
X86106Y43688
X83566Y43688
X81026Y43688
X78486Y43688
X75946Y43688
X73406Y43688
X70866Y43688
X68326Y43688
X68326Y41148
X70866Y41148
X73406Y41148
X75946Y41148
X78486Y41148
X81026Y41148
X83566Y41148
X86106Y41148
X88646Y41148
X91186Y41148
X93726Y41148
X96266Y41148
X98806Y41148
X73406Y46228
X75946Y46228
X78486Y46228
X81026Y46228
X83566Y46228
X86106Y46228
X88646Y46228
X91186Y46228
X93726Y46228
X31750Y83566
X29210Y83566
X26670Y83566
X24130Y83566
X21590Y83566
X19050Y83566
X16510Y83566
X13970Y83566
X11430Y83566
X8890Y83566
X6350Y83566
X3810Y83566
X1270Y83566
X1270Y81026
X3810Y81026
X6350Y81026
X8890Y81026
X11430Y81026
X13970Y81026
X16510Y81026
X19050Y81026
X21590Y81026
X24130Y81026
X26670Y81026
X29210Y81026
X31750Y81026
X6350Y86106
X8890Y86106
X11430Y86106
X13970Y86106
X16510Y86106
X19050Y86106
X21590Y86106
X24130Y86106
X26670Y86106
X65278Y83566
X62738Y83566
X60198Y83566
X57658Y83566
X55118Y83566
X52578Y83566
X50038Y83566
X47498Y83566
X44958Y83566
X42418Y83566
X39878Y83566
X34798Y83566
X34798Y81026
X37338Y81026
X39878Y81026
X42418Y81026
X44958Y81026
X47498Y81026
X50038Y81026
X52578Y81026
X55118Y81026
X57658Y81026
X60198Y81026
X62738Y81026
X65278Y81026
X39878Y86106
X42418Y86106
X44958Y86106
X47498Y86106
X50038Y86106
X52578Y86106
X55118Y86106
X57658Y86106
X60198Y86106
X98806Y83566
X96266Y83566
X93726Y83566
X91186Y83566
X88646Y83566
X86106Y83566
X83566Y83566
X81026Y83566
X78486Y83566
X75946Y83566
X73406Y83566
X70866Y83566
X68326Y83566
X68326Y81026
X70866Y81026
X73406Y81026
X75946Y81026
X78486Y81026
X81026Y81026
X83566Y81026
X86106Y81026
X88646Y81026
X91186Y81026
X93726Y81026
X96266Y81026
X98806Y81026
X73406Y86106
X75946Y86106
X78486Y86106
X81026Y86106
X83566Y86106
X86106Y86106
X88646Y86106
X91186Y86106
X93726Y86106
X31750Y123444
X29210Y123444
X26670Y123444
X24130Y123444
X21590Y123444
X19050Y123444
X16510Y123444
X13970Y123444
X11430Y123444
X8890Y123444
X6350Y123444
X3810Y123444
X1270Y123444
X1270Y120904
X3810Y120904
X6350Y120904
X8890Y120904
X11430Y120904
X13970Y120904
X16510Y120904
X19050Y120904
X21590Y120904
X24130Y120904
X26670Y120904
X29210Y120904
X31750Y120904
X6350Y125984
X8890Y125984
X11430Y125984
X13970Y125984
X16510Y125984
X19050Y125984
X21590Y125984
X24130Y125984
X26670Y125984
X65278Y123444
X62738Y123444
X60198Y123444
X57658Y123444
X55118Y123444
X52578Y123444
X50038Y123444
X47498Y123444
X44958Y123444
X42418Y123444
X39878Y123444
X37338Y123444
X34798Y123444
X34798Y120904
X37338Y120904
X39878Y120904
X42418Y120904
X44958Y120904
X47498Y120904
X50038Y120904
X52578Y120904
X55118Y120904
X57658Y120904
X60198Y120904
X62738Y120904
X65278Y120904
X39878Y125984
X42418Y125984
X44958Y125984
X47498Y125984
X50038Y125984
X52578Y125984
X55118Y125984
X57658Y125984
X60198Y125984
X98806Y123444
X96266Y123444
X93726Y123444
X91186Y123444
X88646Y123444
X86106Y123444
X83566Y123444
X81026Y123444
X78486Y123444
X75946Y123444
X73406Y123444
X70866Y123444
X68326Y123444
X68326Y120904
X70866Y120904
X73406Y120904
X75946Y120904
X78486Y120904
X81026Y120904
X83566Y120904
X86106Y120904
X88646Y120904
X91186Y120904
X93726Y120904
X96266Y120904
X98806Y120904
X73406Y125984
X75946Y125984
X78486Y125984
X81026Y125984
X83566Y125984
X86106Y125984
X88646Y125984
X91186Y125984
X93726Y125984
T3
X17907Y94742
X21209Y107569
X25273Y106045
X25273Y104394
X16891Y89154
X25908Y91186
X31115Y93218
X22860Y101981
X17018Y98933
X32385Y97536
X32385Y100076
X32385Y102616
X32385Y105156
X32385Y107696
X32385Y110236
X32385Y112776
X32385Y94996
X32385Y92456
X32385Y89916
X32385Y87376
X635Y87376
X635Y89916
X635Y92456
X635Y94996
X635Y97536
X635Y100076
X635Y102616
X635Y105156
X635Y107696
X635Y110236
X635Y112776
X27940Y118491
X25400Y118491
X22860Y118491
X20320Y118491
X17780Y118491
X15240Y118491
X12700Y118491
X10160Y118491
X7620Y118491
X5080Y118491
X17602Y107671
X15418Y107676
X13360Y107176
X13360Y104676
X18260Y103073
X19685Y107950
X16310Y93218
X19304Y93218
X17399Y103124
X14402Y103505
X16586Y103229
X14506Y102692
X13589Y103505
X19682Y106172
X21590Y101905
X21590Y100533
X19634Y104445
X19634Y105334
X16256Y88646
X42926Y107950
X42926Y106426
X57150Y108966
X56261Y105156
X53213Y109728
X50546Y101727
X50546Y100457
X57150Y110490
X48768Y109728
X50038Y109728
X51308Y109728
X46863Y105918
X51435Y94742
X54737Y107569
X58801Y106045
X58801Y104394
X50419Y89154
X59436Y91186
X64643Y93218
X56388Y101981
X50546Y98933
X65913Y97536
X65913Y100076
X65913Y102616
X65913Y105156
X65913Y107696
X65913Y110236
X65913Y112776
X65913Y94996
X65913Y92456
X65913Y89916
X65913Y87376
X34163Y87376
X34163Y89916
X34163Y92456
X34163Y94996
X34163Y97536
X34163Y100076
X34163Y102616
X34163Y105156
X34163Y107696
X34163Y110236
X34163Y112776
X61468Y118491
X58928Y118491
X56388Y118491
X53848Y118491
X51308Y118491
X48768Y118491
X46228Y118491
X43688Y118491
X41148Y118491
X38608Y118491
X51130Y107671
X48946Y107676
X46888Y107176
X46888Y104676
X51788Y103073
X53213Y107950
X49838Y93218
X52832Y93218
X50927Y103124
X47930Y103505
X50114Y103229
X48034Y102692
X47117Y103505
X53210Y106172
X55118Y101905
X55118Y100533
X53162Y104445
X53162Y105334
X49784Y88646
X76454Y107950
X76454Y106426
X90678Y108966
X89789Y105156
X86741Y109728
X84074Y101727
X84074Y100457
X90678Y110490
X82296Y109728
X83566Y109728
X84836Y109728
X80391Y105918
X84963Y94742
X88265Y107569
X92329Y106045
X92329Y104394
X83947Y89154
X92964Y91186
X98171Y93218
X89916Y101981
X84074Y98933
X99441Y97536
X99441Y100076
X99441Y102616
X99441Y105156
X99441Y107696
X99441Y110236
X99441Y112776
X99441Y94996
X99441Y92456
X99441Y89916
X99441Y87376
X67691Y87376
X67691Y89916
X67691Y92456
X67691Y94996
X67691Y97536
X67691Y100076
X67691Y102616
X67691Y105156
X67691Y107696
X67691Y110236
X67691Y112776
X94996Y118491
X92456Y118491
X89916Y118491
X87376Y118491
X84836Y118491
X82296Y118491
X79756Y118491
X77216Y118491
X74676Y118491
X72136Y118491
X84658Y107671
X82474Y107676
X80416Y107176
X80416Y104676
X85316Y103073
X86741Y107950
X83366Y93218
X86360Y93218
X84455Y103124
X81458Y103505
X83642Y103229
X81562Y102692
X80645Y103505
X86738Y106172
X88646Y101905
X88646Y100533
X86690Y104445
X86690Y105334
X83312Y88646
X9398Y147828
X9398Y146304
X23622Y148844
X22733Y145034
X19685Y149606
X17018Y141605
X89916Y22225
X23622Y150368
X15240Y149606
X16510Y149606
X17780Y149606
X13335Y145796
X17907Y134620
X21209Y147447
X25273Y145923
X25273Y144272
X16891Y129032
X25908Y131064
X31115Y133096
X22860Y141859
X17018Y138811
X32385Y137414
X32385Y139954
X32385Y142494
X32385Y145034
X32385Y147574
X32385Y150114
X32385Y152654
X32385Y134874
X32385Y132334
X32385Y129794
X32385Y127254
X635Y127254
X635Y129794
X635Y132334
X635Y134874
X635Y137414
X635Y139954
X635Y142494
X635Y145034
X635Y147574
X635Y150114
X635Y152654
X27940Y158369
X25400Y158369
X22860Y158369
X20320Y158369
X17780Y158369
X15240Y158369
X12700Y158369
X10160Y158369
X7620Y158369
X5080Y158369
X17602Y147549
X15418Y147554
X13360Y147054
X13360Y144554
X18260Y142951
X19685Y147828
X16310Y133096
X19304Y133096
X17399Y143002
X14402Y143383
X16586Y143107
X14506Y142570
X13589Y143383
X19682Y146050
X21590Y141783
X21590Y140411
X19634Y144323
X19634Y145212
X16256Y128524
X42926Y147828
X42926Y146304
X57150Y148844
X56261Y145034
X53213Y149606
X50546Y141605
X50546Y140335
X57150Y150368
X48768Y149606
X50038Y149606
X51308Y149606
X46863Y145796
X51435Y134620
X54737Y147447
X58801Y145923
X58801Y144272
X50419Y129032
X59436Y131064
X64643Y133096
X56388Y141859
X50546Y138811
X65913Y137414
X65913Y139954
X65913Y142494
X65913Y145034
X65913Y147574
X65913Y150114
X65913Y152654
X65913Y134874
X65913Y132334
X65913Y129794
X65913Y127254
X34163Y127254
X34163Y129794
X34163Y132334
X34163Y134874
X34163Y137414
X34163Y139954
X34163Y142494
X34163Y145034
X34163Y147574
X34163Y150114
X34163Y152654
X61468Y158369
X58928Y158369
X56388Y158369
X53848Y158369
X51308Y158369
X48768Y158369
X46228Y158369
X43688Y158369
X41148Y158369
X38608Y158369
X51130Y147549
X48946Y147554
X46888Y147054
X46888Y144554
X51788Y142951
X53213Y147828
X49838Y133096
X52832Y133096
X50927Y143002
X47930Y143383
X50114Y143107
X48034Y142570
X47117Y143383
X53210Y146050
X55118Y141783
X55118Y140411
X53162Y144323
X53162Y145212
X49784Y128524
X76454Y147828
X76454Y146304
X90678Y148844
X89789Y145034
X86741Y149606
X84074Y141605
X84074Y140335
X90678Y150368
X82296Y149606
X83566Y149606
X84836Y149606
X80391Y145796
X84963Y134620
X88265Y147447
X92329Y145923
X92329Y144272
X83947Y129032
X92964Y131064
X98171Y133096
X89916Y141859
X84074Y138811
X99441Y137414
X99441Y139954
X99441Y142494
X99441Y145034
X99441Y147574
X99441Y150114
X99441Y152654
X99441Y134874
X99441Y132334
X99441Y129794
X99441Y127254
X67691Y127254
X67691Y129794
X67691Y132334
X67691Y134874
X67691Y137414
X67691Y139954
X67691Y142494
X67691Y145034
X67691Y147574
X67691Y150114
X67691Y152654
X94996Y158369
X92456Y158369
X89916Y158369
X87376Y158369
X84836Y158369
X82296Y158369
X79756Y158369
X77216Y158369
X74676Y158369
X72136Y158369
X84658Y147549
X82474Y147554
X80416Y147054
X80416Y144554
X85316Y142951
X86741Y147828
X83366Y133096
X86360Y133096
X84455Y143002
X81458Y143383
X83642Y143107
X81562Y142570
X80645Y143383
X86738Y146050
X88646Y141783
X88646Y140411
X86690Y144323
X86690Y145212
X83312Y128524
X9398Y28194
X9398Y26670
X23622Y29210
X22733Y25400
X19685Y29972
X17018Y21971
X17018Y20701
X23622Y30734
X15240Y29972
X16510Y29972
X17780Y29972
X13335Y26162
X17907Y14986
X21209Y27813
X25273Y26289
X25273Y24638
X16891Y9398
X25908Y11430
X31115Y13462
X22860Y22225
X17018Y19177
X32385Y17780
X32385Y20320
X32385Y22860
X32385Y25400
X32385Y27940
X32385Y30480
X32385Y33020
X32385Y15240
X32385Y12700
X32385Y10160
X32385Y7620
X635Y7620
X635Y10160
X635Y12700
X635Y15240
X635Y17780
X635Y20320
X635Y22860
X635Y25400
X635Y27940
X635Y30480
X635Y33020
X27940Y38735
X25400Y38735
X22860Y38735
X20320Y38735
X17780Y38735
X15240Y38735
X12700Y38735
X10160Y38735
X7620Y38735
X5080Y38735
X17602Y27915
X15418Y27920
X13360Y27420
X13360Y24920
X18260Y23317
X19685Y28194
X16310Y13462
X19304Y13462
X17399Y23368
X14402Y23749
X16586Y23473
X14506Y22936
X13589Y23749
X19682Y26416
X21590Y22149
X21590Y20777
X19634Y24689
X19634Y25578
X16256Y8890
X42926Y28194
X42926Y26670
X57150Y29210
X56261Y25400
X53213Y29972
X50546Y21971
X50546Y20701
X57150Y30734
X48768Y29972
X50038Y29972
X51308Y29972
X46863Y26162
X51435Y14986
X54737Y27813
X58801Y26289
X58801Y24638
X50419Y9398
X59436Y11430
X64643Y13462
X56388Y22225
X50546Y19177
X65913Y17780
X65913Y20320
X65913Y22860
X65913Y25400
X65913Y27940
X65913Y30480
X65913Y33020
X65913Y15240
X65913Y12700
X65913Y10160
X65913Y7620
X34163Y7620
X34163Y10160
X34163Y12700
X34163Y15240
X34163Y17780
X34163Y20320
X34163Y22860
X34163Y25400
X34163Y27940
X34163Y30480
X34163Y33020
X61468Y38735
X58928Y38735
X56388Y38735
X53848Y38735
X51308Y38735
X48768Y38735
X46228Y38735
X43688Y38735
X41148Y38735
X38608Y38735
X51130Y27915
X48946Y27920
X46888Y27420
X46888Y24920
X51788Y23317
X53213Y28194
X49838Y13462
X52832Y13462
X50927Y23368
X47930Y23749
X50114Y23473
X48034Y22936
X47117Y23749
X53210Y26416
X55118Y22149
X55118Y20777
X53162Y24689
X53162Y25578
X49784Y8890
X76454Y28194
X76454Y26670
X90678Y29210
X89789Y25400
X86741Y29972
X84074Y21971
X84074Y20701
X90678Y30734
X82296Y29972
X83566Y29972
X84836Y29972
X80391Y26162
X84963Y14986
X88265Y27813
X92329Y26289
X92329Y24638
X83947Y9398
X92964Y11430
X98171Y13462
X84074Y19177
X99441Y17780
X99441Y20320
X99441Y22860
X99441Y25400
X99441Y27940
X99441Y30480
X99441Y33020
X99441Y15240
X99441Y12700
X99441Y10160
X99441Y7620
X67691Y7620
X67691Y10160
X67691Y12700
X67691Y15240
X67691Y17780
X67691Y20320
X67691Y22860
X67691Y25400
X67691Y27940
X67691Y30480
X67691Y33020
X94996Y38735
X92456Y38735
X89916Y38735
X87376Y38735
X84836Y38735
X82296Y38735
X79756Y38735
X77216Y38735
X74676Y38735
X72136Y38735
X84658Y27915
X82474Y27920
X80416Y27420
X80416Y24920
X85316Y23317
X86741Y28194
X83366Y13462
X86360Y13462
X84455Y23368
X81458Y23749
X83642Y23473
X81562Y22936
X80645Y23749
X86738Y26416
X88646Y22149
X88646Y20777
X86690Y24689
X86690Y25578
X83312Y8890
X9398Y68072
X9398Y66548
X23622Y69088
X22733Y65278
X19685Y69850
X17018Y61849
X17018Y60579
X23622Y70612
X15240Y69850
X16510Y69850
X17780Y69850
X13335Y66040
X17907Y54864
X21209Y67691
X25273Y66167
X25273Y64516
X16891Y49276
X25908Y51308
X31115Y53340
X22860Y62103
X17018Y59055
X32385Y57658
X32385Y60198
X32385Y62738
X32385Y65278
X32385Y67818
X32385Y70358
X32385Y72898
X32385Y55118
X32385Y52578
X32385Y50038
X32385Y47498
X635Y47498
X635Y50038
X635Y52578
X635Y55118
X635Y57658
X635Y60198
X635Y62738
X635Y65278
X635Y67818
X635Y70358
X635Y72898
X27940Y78613
X25400Y78613
X22860Y78613
X20320Y78613
X17780Y78613
X15240Y78613
X12700Y78613
X10160Y78613
X7620Y78613
X5080Y78613
X17602Y67793
X15418Y67798
X13360Y67298
X13360Y64798
X18260Y63195
X19685Y68072
X16310Y53340
X19304Y53340
X17399Y63246
X14402Y63627
X16586Y63351
X14506Y62814
X17018Y140335
X13589Y63627
X19682Y66294
X21590Y62027
X21590Y60655
X19634Y64567
X19634Y65456
X16256Y48768
X42926Y68072
X42926Y66548
X57150Y69088
X56261Y65278
X53213Y69850
X50546Y61849
X50546Y60579
X57150Y70612
X48768Y69850
X50038Y69850
X51308Y69850
X46863Y66040
X51435Y54864
X54737Y67691
X58801Y66167
X58801Y64516
X50419Y49276
X59436Y51308
X64643Y53340
X56388Y62103
X50546Y59055
X65913Y57658
X65913Y60198
X65913Y62738
X65913Y65278
X65913Y67818
X65913Y70358
X65913Y72898
X65913Y55118
X65913Y52578
X65913Y50038
X65913Y47498
X34163Y47498
X34163Y50038
X34163Y52578
X34163Y55118
X34163Y57658
X34163Y60198
X34163Y62738
X34163Y65278
X34163Y67818
X34163Y70358
X34163Y72898
X61468Y78613
X58928Y78613
X56388Y78613
X53848Y78613
X51308Y78613
X48768Y78613
X46228Y78613
X43688Y78613
X41148Y78613
X38608Y78613
X51130Y67793
X48946Y67798
X46888Y67298
X46888Y64798
X51788Y63195
X53213Y68072
X49838Y53340
X52832Y53340
X50927Y63246
X47930Y63627
X50114Y63351
X48034Y62814
X47117Y63627
X53210Y66294
X55118Y62027
X55118Y60655
X53162Y64567
X53162Y65456
X49784Y48768
X76454Y68072
X76454Y66548
X90678Y69088
X89789Y65278
X86741Y69850
X84074Y61849
X84074Y60579
X90678Y70612
X82296Y69850
X83566Y69850
X84836Y69850
X80391Y66040
X84963Y54864
X88265Y67691
X92329Y66167
X92329Y64516
X83947Y49276
X92964Y51308
X98171Y53340
X89916Y62103
X84074Y59055
X99441Y57658
X99441Y60198
X99441Y62738
X99441Y65278
X99441Y67818
X99441Y70358
X99441Y72898
X99441Y55118
X99441Y52578
X99441Y50038
X99441Y47498
X67691Y47498
X67691Y50038
X67691Y52578
X67691Y55118
X67691Y57658
X67691Y60198
X67691Y62738
X67691Y65278
X67691Y67818
X67691Y70358
X67691Y72898
X94996Y78613
X92456Y78613
X89916Y78613
X87376Y78613
X84836Y78613
X82296Y78613
X79756Y78613
X77216Y78613
X74676Y78613
X72136Y78613
X84658Y67793
X82474Y67798
X80416Y67298
X80416Y64798
X85316Y63195
X86741Y68072
X83366Y53340
X86360Y53340
X84455Y63246
X81458Y63627
X83642Y63351
X81562Y62814
X80645Y63627
X86738Y66294
X88646Y62027
X88646Y60655
X86690Y64567
X86690Y65456
X83312Y48768
X9398Y107950
X9398Y106426
X23622Y108966
X22733Y105156
X19685Y109728
X17018Y101727
X17018Y100457
X23622Y110490
X15240Y109728
X16510Y109728
X17780Y109728
X13335Y105918
M30