G04 EAGLE Gerber RS-274X export*
G75*
%MOMM*%
%FSLAX34Y34*%
%LPD*%
%INSolderpaste Top*%
%IPPOS*%
%AMOC8*
5,1,8,0,0,1.08239X$1,22.5*%
G01*
%ADD10C,0.300000*%


D10*
X142600Y284200D03*
X142600Y279200D03*
X142600Y274200D03*
X142600Y269200D03*
X142600Y264200D03*
X142600Y259200D03*
X142600Y254200D03*
X142600Y249200D03*
X147600Y284200D03*
X147600Y289200D03*
X152600Y289200D03*
X162600Y289200D03*
X157600Y289200D03*
X167600Y289200D03*
X172600Y289200D03*
X177600Y289200D03*
X182600Y289200D03*
X182600Y284200D03*
X187600Y284200D03*
X182600Y279200D03*
X187600Y279200D03*
X182600Y274200D03*
X187600Y274200D03*
X182600Y269200D03*
X187600Y269200D03*
X182600Y264200D03*
X187600Y264200D03*
X187600Y259200D03*
X182600Y254200D03*
X187600Y254200D03*
X147600Y244200D03*
X147600Y254200D03*
X147600Y264200D03*
X147600Y269200D03*
X147600Y274200D03*
X147600Y279200D03*
X152600Y244200D03*
X157600Y244200D03*
X162600Y244200D03*
X167600Y244200D03*
X172600Y244200D03*
X177600Y244200D03*
X182600Y244200D03*
X147600Y249200D03*
X152600Y249200D03*
X162600Y249200D03*
X167600Y249200D03*
X177600Y249200D03*
X182600Y249200D03*
X187600Y249200D03*
X477880Y284200D03*
X477880Y279200D03*
X477880Y274200D03*
X477880Y269200D03*
X477880Y264200D03*
X477880Y259200D03*
X477880Y254200D03*
X477880Y249200D03*
X482880Y284200D03*
X482880Y289200D03*
X487880Y289200D03*
X497880Y289200D03*
X492880Y289200D03*
X502880Y289200D03*
X507880Y289200D03*
X512880Y289200D03*
X517880Y289200D03*
X517880Y284200D03*
X522880Y284200D03*
X517880Y279200D03*
X522880Y279200D03*
X517880Y274200D03*
X522880Y274200D03*
X517880Y269200D03*
X522880Y269200D03*
X517880Y264200D03*
X522880Y264200D03*
X522880Y259200D03*
X517880Y254200D03*
X522880Y254200D03*
X482880Y244200D03*
X482880Y254200D03*
X482880Y264200D03*
X482880Y269200D03*
X482880Y274200D03*
X482880Y279200D03*
X487880Y244200D03*
X492880Y244200D03*
X497880Y244200D03*
X502880Y244200D03*
X507880Y244200D03*
X512880Y244200D03*
X517880Y244200D03*
X482880Y249200D03*
X487880Y249200D03*
X497880Y249200D03*
X502880Y249200D03*
X512880Y249200D03*
X517880Y249200D03*
X522880Y249200D03*
X813160Y284200D03*
X813160Y279200D03*
X813160Y274200D03*
X813160Y269200D03*
X813160Y264200D03*
X813160Y259200D03*
X813160Y254200D03*
X813160Y249200D03*
X818160Y284200D03*
X818160Y289200D03*
X823160Y289200D03*
X833160Y289200D03*
X828160Y289200D03*
X838160Y289200D03*
X843160Y289200D03*
X848160Y289200D03*
X853160Y289200D03*
X853160Y284200D03*
X858160Y284200D03*
X853160Y279200D03*
X858160Y279200D03*
X853160Y274200D03*
X858160Y274200D03*
X853160Y269200D03*
X858160Y269200D03*
X853160Y264200D03*
X858160Y264200D03*
X858160Y259200D03*
X853160Y254200D03*
X858160Y254200D03*
X818160Y244200D03*
X818160Y254200D03*
X818160Y264200D03*
X818160Y269200D03*
X818160Y274200D03*
X818160Y279200D03*
X823160Y244200D03*
X828160Y244200D03*
X833160Y244200D03*
X838160Y244200D03*
X843160Y244200D03*
X848160Y244200D03*
X853160Y244200D03*
X818160Y249200D03*
X823160Y249200D03*
X833160Y249200D03*
X838160Y249200D03*
X848160Y249200D03*
X853160Y249200D03*
X858160Y249200D03*
X142600Y682980D03*
X142600Y677980D03*
X142600Y672980D03*
X142600Y667980D03*
X142600Y662980D03*
X142600Y657980D03*
X142600Y652980D03*
X142600Y647980D03*
X147600Y682980D03*
X147600Y687980D03*
X152600Y687980D03*
X162600Y687980D03*
X157600Y687980D03*
X167600Y687980D03*
X172600Y687980D03*
X177600Y687980D03*
X182600Y687980D03*
X182600Y682980D03*
X187600Y682980D03*
X182600Y677980D03*
X187600Y677980D03*
X182600Y672980D03*
X187600Y672980D03*
X182600Y667980D03*
X187600Y667980D03*
X182600Y662980D03*
X187600Y662980D03*
X187600Y657980D03*
X182600Y652980D03*
X187600Y652980D03*
X147600Y642980D03*
X147600Y652980D03*
X147600Y662980D03*
X147600Y667980D03*
X147600Y672980D03*
X147600Y677980D03*
X152600Y642980D03*
X157600Y642980D03*
X162600Y642980D03*
X167600Y642980D03*
X172600Y642980D03*
X177600Y642980D03*
X182600Y642980D03*
X147600Y647980D03*
X152600Y647980D03*
X162600Y647980D03*
X167600Y647980D03*
X177600Y647980D03*
X182600Y647980D03*
X187600Y647980D03*
X477880Y682980D03*
X477880Y677980D03*
X477880Y672980D03*
X477880Y667980D03*
X477880Y662980D03*
X477880Y657980D03*
X477880Y652980D03*
X477880Y647980D03*
X482880Y682980D03*
X482880Y687980D03*
X487880Y687980D03*
X497880Y687980D03*
X492880Y687980D03*
X502880Y687980D03*
X507880Y687980D03*
X512880Y687980D03*
X517880Y687980D03*
X517880Y682980D03*
X522880Y682980D03*
X517880Y677980D03*
X522880Y677980D03*
X517880Y672980D03*
X522880Y672980D03*
X517880Y667980D03*
X522880Y667980D03*
X517880Y662980D03*
X522880Y662980D03*
X522880Y657980D03*
X517880Y652980D03*
X522880Y652980D03*
X482880Y642980D03*
X482880Y652980D03*
X482880Y662980D03*
X482880Y667980D03*
X482880Y672980D03*
X482880Y677980D03*
X487880Y642980D03*
X492880Y642980D03*
X497880Y642980D03*
X502880Y642980D03*
X507880Y642980D03*
X512880Y642980D03*
X517880Y642980D03*
X482880Y647980D03*
X487880Y647980D03*
X497880Y647980D03*
X502880Y647980D03*
X512880Y647980D03*
X517880Y647980D03*
X522880Y647980D03*
X813160Y682980D03*
X813160Y677980D03*
X813160Y672980D03*
X813160Y667980D03*
X813160Y662980D03*
X813160Y657980D03*
X813160Y652980D03*
X813160Y647980D03*
X818160Y682980D03*
X818160Y687980D03*
X823160Y687980D03*
X833160Y687980D03*
X828160Y687980D03*
X838160Y687980D03*
X843160Y687980D03*
X848160Y687980D03*
X853160Y687980D03*
X853160Y682980D03*
X858160Y682980D03*
X853160Y677980D03*
X858160Y677980D03*
X853160Y672980D03*
X858160Y672980D03*
X853160Y667980D03*
X858160Y667980D03*
X853160Y662980D03*
X858160Y662980D03*
X858160Y657980D03*
X853160Y652980D03*
X858160Y652980D03*
X818160Y642980D03*
X818160Y652980D03*
X818160Y662980D03*
X818160Y667980D03*
X818160Y672980D03*
X818160Y677980D03*
X823160Y642980D03*
X828160Y642980D03*
X833160Y642980D03*
X838160Y642980D03*
X843160Y642980D03*
X848160Y642980D03*
X853160Y642980D03*
X818160Y647980D03*
X823160Y647980D03*
X833160Y647980D03*
X838160Y647980D03*
X848160Y647980D03*
X853160Y647980D03*
X858160Y647980D03*
X142600Y1081760D03*
X142600Y1076760D03*
X142600Y1071760D03*
X142600Y1066760D03*
X142600Y1061760D03*
X142600Y1056760D03*
X142600Y1051760D03*
X142600Y1046760D03*
X147600Y1081760D03*
X147600Y1086760D03*
X152600Y1086760D03*
X162600Y1086760D03*
X157600Y1086760D03*
X167600Y1086760D03*
X172600Y1086760D03*
X177600Y1086760D03*
X182600Y1086760D03*
X182600Y1081760D03*
X187600Y1081760D03*
X182600Y1076760D03*
X187600Y1076760D03*
X182600Y1071760D03*
X187600Y1071760D03*
X182600Y1066760D03*
X187600Y1066760D03*
X182600Y1061760D03*
X187600Y1061760D03*
X187600Y1056760D03*
X182600Y1051760D03*
X187600Y1051760D03*
X147600Y1041760D03*
X147600Y1051760D03*
X147600Y1061760D03*
X147600Y1066760D03*
X147600Y1071760D03*
X147600Y1076760D03*
X152600Y1041760D03*
X157600Y1041760D03*
X162600Y1041760D03*
X167600Y1041760D03*
X172600Y1041760D03*
X177600Y1041760D03*
X182600Y1041760D03*
X147600Y1046760D03*
X152600Y1046760D03*
X162600Y1046760D03*
X167600Y1046760D03*
X177600Y1046760D03*
X182600Y1046760D03*
X187600Y1046760D03*
X477880Y1081760D03*
X477880Y1076760D03*
X477880Y1071760D03*
X477880Y1066760D03*
X477880Y1061760D03*
X477880Y1056760D03*
X477880Y1051760D03*
X477880Y1046760D03*
X482880Y1081760D03*
X482880Y1086760D03*
X487880Y1086760D03*
X497880Y1086760D03*
X492880Y1086760D03*
X502880Y1086760D03*
X507880Y1086760D03*
X512880Y1086760D03*
X517880Y1086760D03*
X517880Y1081760D03*
X522880Y1081760D03*
X517880Y1076760D03*
X522880Y1076760D03*
X517880Y1071760D03*
X522880Y1071760D03*
X517880Y1066760D03*
X522880Y1066760D03*
X517880Y1061760D03*
X522880Y1061760D03*
X522880Y1056760D03*
X517880Y1051760D03*
X522880Y1051760D03*
X482880Y1041760D03*
X482880Y1051760D03*
X482880Y1061760D03*
X482880Y1066760D03*
X482880Y1071760D03*
X482880Y1076760D03*
X487880Y1041760D03*
X492880Y1041760D03*
X497880Y1041760D03*
X502880Y1041760D03*
X507880Y1041760D03*
X512880Y1041760D03*
X517880Y1041760D03*
X482880Y1046760D03*
X487880Y1046760D03*
X497880Y1046760D03*
X502880Y1046760D03*
X512880Y1046760D03*
X517880Y1046760D03*
X522880Y1046760D03*
X813160Y1081760D03*
X813160Y1076760D03*
X813160Y1071760D03*
X813160Y1066760D03*
X813160Y1061760D03*
X813160Y1056760D03*
X813160Y1051760D03*
X813160Y1046760D03*
X818160Y1081760D03*
X818160Y1086760D03*
X823160Y1086760D03*
X833160Y1086760D03*
X828160Y1086760D03*
X838160Y1086760D03*
X843160Y1086760D03*
X848160Y1086760D03*
X853160Y1086760D03*
X853160Y1081760D03*
X858160Y1081760D03*
X853160Y1076760D03*
X858160Y1076760D03*
X853160Y1071760D03*
X858160Y1071760D03*
X853160Y1066760D03*
X858160Y1066760D03*
X853160Y1061760D03*
X858160Y1061760D03*
X858160Y1056760D03*
X853160Y1051760D03*
X858160Y1051760D03*
X818160Y1041760D03*
X818160Y1051760D03*
X818160Y1061760D03*
X818160Y1066760D03*
X818160Y1071760D03*
X818160Y1076760D03*
X823160Y1041760D03*
X828160Y1041760D03*
X833160Y1041760D03*
X838160Y1041760D03*
X843160Y1041760D03*
X848160Y1041760D03*
X853160Y1041760D03*
X818160Y1046760D03*
X823160Y1046760D03*
X833160Y1046760D03*
X838160Y1046760D03*
X848160Y1046760D03*
X853160Y1046760D03*
X858160Y1046760D03*
X142600Y1480540D03*
X142600Y1475540D03*
X142600Y1470540D03*
X142600Y1465540D03*
X142600Y1460540D03*
X142600Y1455540D03*
X142600Y1450540D03*
X142600Y1445540D03*
X147600Y1480540D03*
X147600Y1485540D03*
X152600Y1485540D03*
X162600Y1485540D03*
X157600Y1485540D03*
X167600Y1485540D03*
X172600Y1485540D03*
X177600Y1485540D03*
X182600Y1485540D03*
X182600Y1480540D03*
X187600Y1480540D03*
X182600Y1475540D03*
X187600Y1475540D03*
X182600Y1470540D03*
X187600Y1470540D03*
X182600Y1465540D03*
X187600Y1465540D03*
X182600Y1460540D03*
X187600Y1460540D03*
X187600Y1455540D03*
X182600Y1450540D03*
X187600Y1450540D03*
X147600Y1440540D03*
X147600Y1450540D03*
X147600Y1460540D03*
X147600Y1465540D03*
X147600Y1470540D03*
X147600Y1475540D03*
X152600Y1440540D03*
X157600Y1440540D03*
X162600Y1440540D03*
X167600Y1440540D03*
X172600Y1440540D03*
X177600Y1440540D03*
X182600Y1440540D03*
X147600Y1445540D03*
X152600Y1445540D03*
X162600Y1445540D03*
X167600Y1445540D03*
X177600Y1445540D03*
X182600Y1445540D03*
X187600Y1445540D03*
X477880Y1480540D03*
X477880Y1475540D03*
X477880Y1470540D03*
X477880Y1465540D03*
X477880Y1460540D03*
X477880Y1455540D03*
X477880Y1450540D03*
X477880Y1445540D03*
X482880Y1480540D03*
X482880Y1485540D03*
X487880Y1485540D03*
X497880Y1485540D03*
X492880Y1485540D03*
X502880Y1485540D03*
X507880Y1485540D03*
X512880Y1485540D03*
X517880Y1485540D03*
X517880Y1480540D03*
X522880Y1480540D03*
X517880Y1475540D03*
X522880Y1475540D03*
X517880Y1470540D03*
X522880Y1470540D03*
X517880Y1465540D03*
X522880Y1465540D03*
X517880Y1460540D03*
X522880Y1460540D03*
X522880Y1455540D03*
X517880Y1450540D03*
X522880Y1450540D03*
X482880Y1440540D03*
X482880Y1450540D03*
X482880Y1460540D03*
X482880Y1465540D03*
X482880Y1470540D03*
X482880Y1475540D03*
X487880Y1440540D03*
X492880Y1440540D03*
X497880Y1440540D03*
X502880Y1440540D03*
X507880Y1440540D03*
X512880Y1440540D03*
X517880Y1440540D03*
X482880Y1445540D03*
X487880Y1445540D03*
X497880Y1445540D03*
X502880Y1445540D03*
X512880Y1445540D03*
X517880Y1445540D03*
X522880Y1445540D03*
X813160Y1480540D03*
X813160Y1475540D03*
X813160Y1470540D03*
X813160Y1465540D03*
X813160Y1460540D03*
X813160Y1455540D03*
X813160Y1450540D03*
X813160Y1445540D03*
X818160Y1480540D03*
X818160Y1485540D03*
X823160Y1485540D03*
X833160Y1485540D03*
X828160Y1485540D03*
X838160Y1485540D03*
X843160Y1485540D03*
X848160Y1485540D03*
X853160Y1485540D03*
X853160Y1480540D03*
X858160Y1480540D03*
X853160Y1475540D03*
X858160Y1475540D03*
X853160Y1470540D03*
X858160Y1470540D03*
X853160Y1465540D03*
X858160Y1465540D03*
X853160Y1460540D03*
X858160Y1460540D03*
X858160Y1455540D03*
X853160Y1450540D03*
X858160Y1450540D03*
X818160Y1440540D03*
X818160Y1450540D03*
X818160Y1460540D03*
X818160Y1465540D03*
X818160Y1470540D03*
X818160Y1475540D03*
X823160Y1440540D03*
X828160Y1440540D03*
X833160Y1440540D03*
X838160Y1440540D03*
X843160Y1440540D03*
X848160Y1440540D03*
X853160Y1440540D03*
X818160Y1445540D03*
X823160Y1445540D03*
X833160Y1445540D03*
X838160Y1445540D03*
X848160Y1445540D03*
X853160Y1445540D03*
X858160Y1445540D03*
M02*
