G04 EAGLE Gerber RS-274X export*
G75*
%MOMM*%
%FSLAX34Y34*%
%LPD*%
%INSoldermask Bottom*%
%IPPOS*%
%AMOC8*
5,1,8,0,0,1.08239X$1,22.5*%
G01*
%ADD10R,1.303200X1.203200*%
%ADD11R,1.303200X1.403200*%
%ADD12R,1.203200X1.303200*%
%ADD13R,1.403200X0.753200*%
%ADD14R,0.403200X1.303200*%
%ADD15R,0.403200X1.203200*%
%ADD16C,2.082800*%
%ADD17C,3.505200*%
%ADD18C,0.838200*%
%ADD19C,1.203200*%
%ADD20C,1.270000*%
%ADD21C,1.703200*%


D10*
X122800Y266700D03*
X105800Y266700D03*
X122800Y281940D03*
X105800Y281940D03*
D11*
X207150Y242250D03*
X207150Y265750D03*
X224650Y265750D03*
X224650Y242250D03*
D12*
X241300Y228990D03*
X241300Y245990D03*
X241300Y263280D03*
X241300Y280280D03*
D10*
X207400Y292100D03*
X224400Y292100D03*
X207400Y307340D03*
X224400Y307340D03*
X199000Y222250D03*
X182000Y222250D03*
X199000Y207010D03*
X182000Y207010D03*
X182000Y191770D03*
X199000Y191770D03*
D13*
X292401Y123800D03*
X292401Y114300D03*
X292401Y104800D03*
X266399Y104800D03*
X266399Y123800D03*
D12*
X311150Y105800D03*
X311150Y122800D03*
X247650Y122800D03*
X247650Y105800D03*
D14*
X147100Y122800D03*
D15*
X151100Y123300D03*
X155100Y123300D03*
X159100Y123300D03*
X163100Y123300D03*
X167100Y123300D03*
X171100Y123300D03*
X175100Y123300D03*
X179100Y123300D03*
X183100Y123300D03*
X183100Y105300D03*
X179100Y105300D03*
X175100Y105300D03*
X171100Y105300D03*
X167100Y105300D03*
X163100Y105300D03*
X159100Y105300D03*
X155100Y105300D03*
X151100Y105300D03*
X147100Y105300D03*
D16*
X317500Y38100D03*
X292100Y38100D03*
X266700Y38100D03*
X241300Y38100D03*
X215900Y38100D03*
X190500Y38100D03*
X165100Y38100D03*
X139700Y38100D03*
X114300Y38100D03*
X88900Y38100D03*
X63500Y38100D03*
X38100Y38100D03*
X12700Y38100D03*
X12700Y12700D03*
X38100Y12700D03*
X63500Y12700D03*
X88900Y12700D03*
X114300Y12700D03*
X139700Y12700D03*
X165100Y12700D03*
X190500Y12700D03*
X215900Y12700D03*
X241300Y12700D03*
X266700Y12700D03*
X292100Y12700D03*
X317500Y12700D03*
D17*
X25400Y368300D03*
X304800Y368300D03*
D18*
X6350Y387350D03*
X317500Y63500D03*
D16*
X63500Y63500D03*
X88900Y63500D03*
X114300Y63500D03*
X139700Y63500D03*
X165100Y63500D03*
X190500Y63500D03*
X215900Y63500D03*
X241300Y63500D03*
X266700Y63500D03*
D10*
X458080Y266700D03*
X441080Y266700D03*
X458080Y281940D03*
X441080Y281940D03*
D11*
X542430Y242250D03*
X542430Y265750D03*
X559930Y265750D03*
X559930Y242250D03*
D12*
X576580Y228990D03*
X576580Y245990D03*
X576580Y263280D03*
X576580Y280280D03*
D10*
X542680Y292100D03*
X559680Y292100D03*
X542680Y307340D03*
X559680Y307340D03*
X534280Y222250D03*
X517280Y222250D03*
X534280Y207010D03*
X517280Y207010D03*
X517280Y191770D03*
X534280Y191770D03*
D13*
X627681Y123800D03*
X627681Y114300D03*
X627681Y104800D03*
X601679Y104800D03*
X601679Y123800D03*
D12*
X646430Y105800D03*
X646430Y122800D03*
X582930Y122800D03*
X582930Y105800D03*
D14*
X482380Y122800D03*
D15*
X486380Y123300D03*
X490380Y123300D03*
X494380Y123300D03*
X498380Y123300D03*
X502380Y123300D03*
X506380Y123300D03*
X510380Y123300D03*
X514380Y123300D03*
X518380Y123300D03*
X518380Y105300D03*
X514380Y105300D03*
X510380Y105300D03*
X506380Y105300D03*
X502380Y105300D03*
X498380Y105300D03*
X494380Y105300D03*
X490380Y105300D03*
X486380Y105300D03*
X482380Y105300D03*
D16*
X652780Y38100D03*
X627380Y38100D03*
X601980Y38100D03*
X576580Y38100D03*
X551180Y38100D03*
X525780Y38100D03*
X500380Y38100D03*
X474980Y38100D03*
X449580Y38100D03*
X424180Y38100D03*
X398780Y38100D03*
X373380Y38100D03*
X347980Y38100D03*
X347980Y12700D03*
X373380Y12700D03*
X398780Y12700D03*
X424180Y12700D03*
X449580Y12700D03*
X474980Y12700D03*
X500380Y12700D03*
X525780Y12700D03*
X551180Y12700D03*
X576580Y12700D03*
X601980Y12700D03*
X627380Y12700D03*
X652780Y12700D03*
D17*
X360680Y368300D03*
X640080Y368300D03*
D18*
X341630Y387350D03*
X652780Y63500D03*
D16*
X398780Y63500D03*
X424180Y63500D03*
X449580Y63500D03*
X474980Y63500D03*
X500380Y63500D03*
X525780Y63500D03*
X551180Y63500D03*
X576580Y63500D03*
X601980Y63500D03*
D10*
X793360Y266700D03*
X776360Y266700D03*
X793360Y281940D03*
X776360Y281940D03*
D11*
X877710Y242250D03*
X877710Y265750D03*
X895210Y265750D03*
X895210Y242250D03*
D12*
X911860Y228990D03*
X911860Y245990D03*
X911860Y263280D03*
X911860Y280280D03*
D10*
X877960Y292100D03*
X894960Y292100D03*
X877960Y307340D03*
X894960Y307340D03*
X869560Y222250D03*
X852560Y222250D03*
X869560Y207010D03*
X852560Y207010D03*
X852560Y191770D03*
X869560Y191770D03*
D13*
X962961Y123800D03*
X962961Y114300D03*
X962961Y104800D03*
X936959Y104800D03*
X936959Y123800D03*
D12*
X981710Y105800D03*
X981710Y122800D03*
X918210Y122800D03*
X918210Y105800D03*
D14*
X817660Y122800D03*
D15*
X821660Y123300D03*
X825660Y123300D03*
X829660Y123300D03*
X833660Y123300D03*
X837660Y123300D03*
X841660Y123300D03*
X845660Y123300D03*
X849660Y123300D03*
X853660Y123300D03*
X853660Y105300D03*
X849660Y105300D03*
X845660Y105300D03*
X841660Y105300D03*
X837660Y105300D03*
X833660Y105300D03*
X829660Y105300D03*
X825660Y105300D03*
X821660Y105300D03*
X817660Y105300D03*
D16*
X988060Y38100D03*
X962660Y38100D03*
X937260Y38100D03*
X911860Y38100D03*
X886460Y38100D03*
X861060Y38100D03*
X835660Y38100D03*
X810260Y38100D03*
X784860Y38100D03*
X759460Y38100D03*
X734060Y38100D03*
X708660Y38100D03*
X683260Y38100D03*
X683260Y12700D03*
X708660Y12700D03*
X734060Y12700D03*
X759460Y12700D03*
X784860Y12700D03*
X810260Y12700D03*
X835660Y12700D03*
X861060Y12700D03*
X886460Y12700D03*
X911860Y12700D03*
X937260Y12700D03*
X962660Y12700D03*
X988060Y12700D03*
D17*
X695960Y368300D03*
X975360Y368300D03*
D18*
X676910Y387350D03*
X988060Y63500D03*
D16*
X734060Y63500D03*
X759460Y63500D03*
X784860Y63500D03*
X810260Y63500D03*
X835660Y63500D03*
X861060Y63500D03*
X886460Y63500D03*
X911860Y63500D03*
X937260Y63500D03*
D10*
X122800Y665480D03*
X105800Y665480D03*
X122800Y680720D03*
X105800Y680720D03*
D11*
X207150Y641030D03*
X207150Y664530D03*
X224650Y664530D03*
X224650Y641030D03*
D12*
X241300Y627770D03*
X241300Y644770D03*
X241300Y662060D03*
X241300Y679060D03*
D10*
X207400Y690880D03*
X224400Y690880D03*
X207400Y706120D03*
X224400Y706120D03*
X199000Y621030D03*
X182000Y621030D03*
X199000Y605790D03*
X182000Y605790D03*
X182000Y590550D03*
X199000Y590550D03*
D13*
X292401Y522580D03*
X292401Y513080D03*
X292401Y503580D03*
X266399Y503580D03*
X266399Y522580D03*
D12*
X311150Y504580D03*
X311150Y521580D03*
X247650Y521580D03*
X247650Y504580D03*
D14*
X147100Y521580D03*
D15*
X151100Y522080D03*
X155100Y522080D03*
X159100Y522080D03*
X163100Y522080D03*
X167100Y522080D03*
X171100Y522080D03*
X175100Y522080D03*
X179100Y522080D03*
X183100Y522080D03*
X183100Y504080D03*
X179100Y504080D03*
X175100Y504080D03*
X171100Y504080D03*
X167100Y504080D03*
X163100Y504080D03*
X159100Y504080D03*
X155100Y504080D03*
X151100Y504080D03*
X147100Y504080D03*
D16*
X317500Y436880D03*
X292100Y436880D03*
X266700Y436880D03*
X241300Y436880D03*
X215900Y436880D03*
X190500Y436880D03*
X165100Y436880D03*
X139700Y436880D03*
X114300Y436880D03*
X88900Y436880D03*
X63500Y436880D03*
X38100Y436880D03*
X12700Y436880D03*
X12700Y411480D03*
X38100Y411480D03*
X63500Y411480D03*
X88900Y411480D03*
X114300Y411480D03*
X139700Y411480D03*
X165100Y411480D03*
X190500Y411480D03*
X215900Y411480D03*
X241300Y411480D03*
X266700Y411480D03*
X292100Y411480D03*
X317500Y411480D03*
D17*
X25400Y767080D03*
X304800Y767080D03*
D18*
X6350Y786130D03*
X317500Y462280D03*
D16*
X63500Y462280D03*
X88900Y462280D03*
X114300Y462280D03*
X139700Y462280D03*
X165100Y462280D03*
X190500Y462280D03*
X215900Y462280D03*
X241300Y462280D03*
X266700Y462280D03*
D10*
X458080Y665480D03*
X441080Y665480D03*
X458080Y680720D03*
X441080Y680720D03*
D11*
X542430Y641030D03*
X542430Y664530D03*
X559930Y664530D03*
X559930Y641030D03*
D12*
X576580Y627770D03*
X576580Y644770D03*
X576580Y662060D03*
X576580Y679060D03*
D10*
X542680Y690880D03*
X559680Y690880D03*
X542680Y706120D03*
X559680Y706120D03*
X534280Y621030D03*
X517280Y621030D03*
X534280Y605790D03*
X517280Y605790D03*
X517280Y590550D03*
X534280Y590550D03*
D13*
X627681Y522580D03*
X627681Y513080D03*
X627681Y503580D03*
X601679Y503580D03*
X601679Y522580D03*
D12*
X646430Y504580D03*
X646430Y521580D03*
X582930Y521580D03*
X582930Y504580D03*
D14*
X482380Y521580D03*
D15*
X486380Y522080D03*
X490380Y522080D03*
X494380Y522080D03*
X498380Y522080D03*
X502380Y522080D03*
X506380Y522080D03*
X510380Y522080D03*
X514380Y522080D03*
X518380Y522080D03*
X518380Y504080D03*
X514380Y504080D03*
X510380Y504080D03*
X506380Y504080D03*
X502380Y504080D03*
X498380Y504080D03*
X494380Y504080D03*
X490380Y504080D03*
X486380Y504080D03*
X482380Y504080D03*
D16*
X652780Y436880D03*
X627380Y436880D03*
X601980Y436880D03*
X576580Y436880D03*
X551180Y436880D03*
X525780Y436880D03*
X500380Y436880D03*
X474980Y436880D03*
X449580Y436880D03*
X424180Y436880D03*
X398780Y436880D03*
X373380Y436880D03*
X347980Y436880D03*
X347980Y411480D03*
X373380Y411480D03*
X398780Y411480D03*
X424180Y411480D03*
X449580Y411480D03*
X474980Y411480D03*
X500380Y411480D03*
X525780Y411480D03*
X551180Y411480D03*
X576580Y411480D03*
X601980Y411480D03*
X627380Y411480D03*
X652780Y411480D03*
D17*
X360680Y767080D03*
X640080Y767080D03*
D18*
X341630Y786130D03*
X652780Y462280D03*
D16*
X398780Y462280D03*
X424180Y462280D03*
X449580Y462280D03*
X474980Y462280D03*
X500380Y462280D03*
X525780Y462280D03*
X551180Y462280D03*
X576580Y462280D03*
X601980Y462280D03*
D10*
X793360Y665480D03*
X776360Y665480D03*
X793360Y680720D03*
X776360Y680720D03*
D11*
X877710Y641030D03*
X877710Y664530D03*
X895210Y664530D03*
X895210Y641030D03*
D12*
X911860Y627770D03*
X911860Y644770D03*
X911860Y662060D03*
X911860Y679060D03*
D10*
X877960Y690880D03*
X894960Y690880D03*
X877960Y706120D03*
X894960Y706120D03*
X869560Y621030D03*
X852560Y621030D03*
X869560Y605790D03*
X852560Y605790D03*
X852560Y590550D03*
X869560Y590550D03*
D13*
X962961Y522580D03*
X962961Y513080D03*
X962961Y503580D03*
X936959Y503580D03*
X936959Y522580D03*
D12*
X981710Y504580D03*
X981710Y521580D03*
X918210Y521580D03*
X918210Y504580D03*
D14*
X817660Y521580D03*
D15*
X821660Y522080D03*
X825660Y522080D03*
X829660Y522080D03*
X833660Y522080D03*
X837660Y522080D03*
X841660Y522080D03*
X845660Y522080D03*
X849660Y522080D03*
X853660Y522080D03*
X853660Y504080D03*
X849660Y504080D03*
X845660Y504080D03*
X841660Y504080D03*
X837660Y504080D03*
X833660Y504080D03*
X829660Y504080D03*
X825660Y504080D03*
X821660Y504080D03*
X817660Y504080D03*
D16*
X988060Y436880D03*
X962660Y436880D03*
X937260Y436880D03*
X911860Y436880D03*
X886460Y436880D03*
X861060Y436880D03*
X835660Y436880D03*
X810260Y436880D03*
X784860Y436880D03*
X759460Y436880D03*
X734060Y436880D03*
X708660Y436880D03*
X683260Y436880D03*
X683260Y411480D03*
X708660Y411480D03*
X734060Y411480D03*
X759460Y411480D03*
X784860Y411480D03*
X810260Y411480D03*
X835660Y411480D03*
X861060Y411480D03*
X886460Y411480D03*
X911860Y411480D03*
X937260Y411480D03*
X962660Y411480D03*
X988060Y411480D03*
D17*
X695960Y767080D03*
X975360Y767080D03*
D18*
X676910Y786130D03*
X988060Y462280D03*
D16*
X734060Y462280D03*
X759460Y462280D03*
X784860Y462280D03*
X810260Y462280D03*
X835660Y462280D03*
X861060Y462280D03*
X886460Y462280D03*
X911860Y462280D03*
X937260Y462280D03*
D10*
X122800Y1064260D03*
X105800Y1064260D03*
X122800Y1079500D03*
X105800Y1079500D03*
D11*
X207150Y1039810D03*
X207150Y1063310D03*
X224650Y1063310D03*
X224650Y1039810D03*
D12*
X241300Y1026550D03*
X241300Y1043550D03*
X241300Y1060840D03*
X241300Y1077840D03*
D10*
X207400Y1089660D03*
X224400Y1089660D03*
X207400Y1104900D03*
X224400Y1104900D03*
X199000Y1019810D03*
X182000Y1019810D03*
X199000Y1004570D03*
X182000Y1004570D03*
X182000Y989330D03*
X199000Y989330D03*
D13*
X292401Y921360D03*
X292401Y911860D03*
X292401Y902360D03*
X266399Y902360D03*
X266399Y921360D03*
D12*
X311150Y903360D03*
X311150Y920360D03*
X247650Y920360D03*
X247650Y903360D03*
D14*
X147100Y920360D03*
D15*
X151100Y920860D03*
X155100Y920860D03*
X159100Y920860D03*
X163100Y920860D03*
X167100Y920860D03*
X171100Y920860D03*
X175100Y920860D03*
X179100Y920860D03*
X183100Y920860D03*
X183100Y902860D03*
X179100Y902860D03*
X175100Y902860D03*
X171100Y902860D03*
X167100Y902860D03*
X163100Y902860D03*
X159100Y902860D03*
X155100Y902860D03*
X151100Y902860D03*
X147100Y902860D03*
D16*
X317500Y835660D03*
X292100Y835660D03*
X266700Y835660D03*
X241300Y835660D03*
X215900Y835660D03*
X190500Y835660D03*
X165100Y835660D03*
X139700Y835660D03*
X114300Y835660D03*
X88900Y835660D03*
X63500Y835660D03*
X38100Y835660D03*
X12700Y835660D03*
X12700Y810260D03*
X38100Y810260D03*
X63500Y810260D03*
X88900Y810260D03*
X114300Y810260D03*
X139700Y810260D03*
X165100Y810260D03*
X190500Y810260D03*
X215900Y810260D03*
X241300Y810260D03*
X266700Y810260D03*
X292100Y810260D03*
X317500Y810260D03*
D17*
X25400Y1165860D03*
X304800Y1165860D03*
D18*
X6350Y1184910D03*
X317500Y861060D03*
D16*
X63500Y861060D03*
X88900Y861060D03*
X114300Y861060D03*
X139700Y861060D03*
X165100Y861060D03*
X190500Y861060D03*
X215900Y861060D03*
X241300Y861060D03*
X266700Y861060D03*
D10*
X458080Y1064260D03*
X441080Y1064260D03*
X458080Y1079500D03*
X441080Y1079500D03*
D11*
X542430Y1039810D03*
X542430Y1063310D03*
X559930Y1063310D03*
X559930Y1039810D03*
D12*
X576580Y1026550D03*
X576580Y1043550D03*
X576580Y1060840D03*
X576580Y1077840D03*
D10*
X542680Y1089660D03*
X559680Y1089660D03*
X542680Y1104900D03*
X559680Y1104900D03*
X534280Y1019810D03*
X517280Y1019810D03*
X534280Y1004570D03*
X517280Y1004570D03*
X517280Y989330D03*
X534280Y989330D03*
D13*
X627681Y921360D03*
X627681Y911860D03*
X627681Y902360D03*
X601679Y902360D03*
X601679Y921360D03*
D12*
X646430Y903360D03*
X646430Y920360D03*
X582930Y920360D03*
X582930Y903360D03*
D14*
X482380Y920360D03*
D15*
X486380Y920860D03*
X490380Y920860D03*
X494380Y920860D03*
X498380Y920860D03*
X502380Y920860D03*
X506380Y920860D03*
X510380Y920860D03*
X514380Y920860D03*
X518380Y920860D03*
X518380Y902860D03*
X514380Y902860D03*
X510380Y902860D03*
X506380Y902860D03*
X502380Y902860D03*
X498380Y902860D03*
X494380Y902860D03*
X490380Y902860D03*
X486380Y902860D03*
X482380Y902860D03*
D16*
X652780Y835660D03*
X627380Y835660D03*
X601980Y835660D03*
X576580Y835660D03*
X551180Y835660D03*
X525780Y835660D03*
X500380Y835660D03*
X474980Y835660D03*
X449580Y835660D03*
X424180Y835660D03*
X398780Y835660D03*
X373380Y835660D03*
X347980Y835660D03*
X347980Y810260D03*
X373380Y810260D03*
X398780Y810260D03*
X424180Y810260D03*
X449580Y810260D03*
X474980Y810260D03*
X500380Y810260D03*
X525780Y810260D03*
X551180Y810260D03*
X576580Y810260D03*
X601980Y810260D03*
X627380Y810260D03*
X652780Y810260D03*
D17*
X360680Y1165860D03*
X640080Y1165860D03*
D18*
X341630Y1184910D03*
X652780Y861060D03*
D16*
X398780Y861060D03*
X424180Y861060D03*
X449580Y861060D03*
X474980Y861060D03*
X500380Y861060D03*
X525780Y861060D03*
X551180Y861060D03*
X576580Y861060D03*
X601980Y861060D03*
D10*
X793360Y1064260D03*
X776360Y1064260D03*
X793360Y1079500D03*
X776360Y1079500D03*
D11*
X877710Y1039810D03*
X877710Y1063310D03*
X895210Y1063310D03*
X895210Y1039810D03*
D12*
X911860Y1026550D03*
X911860Y1043550D03*
X911860Y1060840D03*
X911860Y1077840D03*
D10*
X877960Y1089660D03*
X894960Y1089660D03*
X877960Y1104900D03*
X894960Y1104900D03*
X869560Y1019810D03*
X852560Y1019810D03*
X869560Y1004570D03*
X852560Y1004570D03*
X852560Y989330D03*
X869560Y989330D03*
D13*
X962961Y921360D03*
X962961Y911860D03*
X962961Y902360D03*
X936959Y902360D03*
X936959Y921360D03*
D12*
X981710Y903360D03*
X981710Y920360D03*
X918210Y920360D03*
X918210Y903360D03*
D14*
X817660Y920360D03*
D15*
X821660Y920860D03*
X825660Y920860D03*
X829660Y920860D03*
X833660Y920860D03*
X837660Y920860D03*
X841660Y920860D03*
X845660Y920860D03*
X849660Y920860D03*
X853660Y920860D03*
X853660Y902860D03*
X849660Y902860D03*
X845660Y902860D03*
X841660Y902860D03*
X837660Y902860D03*
X833660Y902860D03*
X829660Y902860D03*
X825660Y902860D03*
X821660Y902860D03*
X817660Y902860D03*
D16*
X988060Y835660D03*
X962660Y835660D03*
X937260Y835660D03*
X911860Y835660D03*
X886460Y835660D03*
X861060Y835660D03*
X835660Y835660D03*
X810260Y835660D03*
X784860Y835660D03*
X759460Y835660D03*
X734060Y835660D03*
X708660Y835660D03*
X683260Y835660D03*
X683260Y810260D03*
X708660Y810260D03*
X734060Y810260D03*
X759460Y810260D03*
X784860Y810260D03*
X810260Y810260D03*
X835660Y810260D03*
X861060Y810260D03*
X886460Y810260D03*
X911860Y810260D03*
X937260Y810260D03*
X962660Y810260D03*
X988060Y810260D03*
D17*
X695960Y1165860D03*
X975360Y1165860D03*
D18*
X676910Y1184910D03*
X988060Y861060D03*
D16*
X734060Y861060D03*
X759460Y861060D03*
X784860Y861060D03*
X810260Y861060D03*
X835660Y861060D03*
X861060Y861060D03*
X886460Y861060D03*
X911860Y861060D03*
X937260Y861060D03*
D10*
X122800Y1463040D03*
X105800Y1463040D03*
X122800Y1478280D03*
X105800Y1478280D03*
D11*
X207150Y1438590D03*
X207150Y1462090D03*
X224650Y1462090D03*
X224650Y1438590D03*
D12*
X241300Y1425330D03*
X241300Y1442330D03*
X241300Y1459620D03*
X241300Y1476620D03*
D10*
X207400Y1488440D03*
X224400Y1488440D03*
X207400Y1503680D03*
X224400Y1503680D03*
X199000Y1418590D03*
X182000Y1418590D03*
X199000Y1403350D03*
X182000Y1403350D03*
X182000Y1388110D03*
X199000Y1388110D03*
D13*
X292401Y1320140D03*
X292401Y1310640D03*
X292401Y1301140D03*
X266399Y1301140D03*
X266399Y1320140D03*
D12*
X311150Y1302140D03*
X311150Y1319140D03*
X247650Y1319140D03*
X247650Y1302140D03*
D14*
X147100Y1319140D03*
D15*
X151100Y1319640D03*
X155100Y1319640D03*
X159100Y1319640D03*
X163100Y1319640D03*
X167100Y1319640D03*
X171100Y1319640D03*
X175100Y1319640D03*
X179100Y1319640D03*
X183100Y1319640D03*
X183100Y1301640D03*
X179100Y1301640D03*
X175100Y1301640D03*
X171100Y1301640D03*
X167100Y1301640D03*
X163100Y1301640D03*
X159100Y1301640D03*
X155100Y1301640D03*
X151100Y1301640D03*
X147100Y1301640D03*
D16*
X317500Y1234440D03*
X292100Y1234440D03*
X266700Y1234440D03*
X241300Y1234440D03*
X215900Y1234440D03*
X190500Y1234440D03*
X165100Y1234440D03*
X139700Y1234440D03*
X114300Y1234440D03*
X88900Y1234440D03*
X63500Y1234440D03*
X38100Y1234440D03*
X12700Y1234440D03*
X12700Y1209040D03*
X38100Y1209040D03*
X63500Y1209040D03*
X88900Y1209040D03*
X114300Y1209040D03*
X139700Y1209040D03*
X165100Y1209040D03*
X190500Y1209040D03*
X215900Y1209040D03*
X241300Y1209040D03*
X266700Y1209040D03*
X292100Y1209040D03*
X317500Y1209040D03*
D17*
X25400Y1564640D03*
X304800Y1564640D03*
D18*
X6350Y1583690D03*
X317500Y1259840D03*
D16*
X63500Y1259840D03*
X88900Y1259840D03*
X114300Y1259840D03*
X139700Y1259840D03*
X165100Y1259840D03*
X190500Y1259840D03*
X215900Y1259840D03*
X241300Y1259840D03*
X266700Y1259840D03*
D10*
X458080Y1463040D03*
X441080Y1463040D03*
X458080Y1478280D03*
X441080Y1478280D03*
D11*
X542430Y1438590D03*
X542430Y1462090D03*
X559930Y1462090D03*
X559930Y1438590D03*
D12*
X576580Y1425330D03*
X576580Y1442330D03*
X576580Y1459620D03*
X576580Y1476620D03*
D10*
X542680Y1488440D03*
X559680Y1488440D03*
X542680Y1503680D03*
X559680Y1503680D03*
X534280Y1418590D03*
X517280Y1418590D03*
X534280Y1403350D03*
X517280Y1403350D03*
X517280Y1388110D03*
X534280Y1388110D03*
D13*
X627681Y1320140D03*
X627681Y1310640D03*
X627681Y1301140D03*
X601679Y1301140D03*
X601679Y1320140D03*
D12*
X646430Y1302140D03*
X646430Y1319140D03*
X582930Y1319140D03*
X582930Y1302140D03*
D14*
X482380Y1319140D03*
D15*
X486380Y1319640D03*
X490380Y1319640D03*
X494380Y1319640D03*
X498380Y1319640D03*
X502380Y1319640D03*
X506380Y1319640D03*
X510380Y1319640D03*
X514380Y1319640D03*
X518380Y1319640D03*
X518380Y1301640D03*
X514380Y1301640D03*
X510380Y1301640D03*
X506380Y1301640D03*
X502380Y1301640D03*
X498380Y1301640D03*
X494380Y1301640D03*
X490380Y1301640D03*
X486380Y1301640D03*
X482380Y1301640D03*
D16*
X652780Y1234440D03*
X627380Y1234440D03*
X601980Y1234440D03*
X576580Y1234440D03*
X551180Y1234440D03*
X525780Y1234440D03*
X500380Y1234440D03*
X474980Y1234440D03*
X449580Y1234440D03*
X424180Y1234440D03*
X398780Y1234440D03*
X373380Y1234440D03*
X347980Y1234440D03*
X347980Y1209040D03*
X373380Y1209040D03*
X398780Y1209040D03*
X424180Y1209040D03*
X449580Y1209040D03*
X474980Y1209040D03*
X500380Y1209040D03*
X525780Y1209040D03*
X551180Y1209040D03*
X576580Y1209040D03*
X601980Y1209040D03*
X627380Y1209040D03*
X652780Y1209040D03*
D17*
X360680Y1564640D03*
X640080Y1564640D03*
D18*
X341630Y1583690D03*
X652780Y1259840D03*
D16*
X398780Y1259840D03*
X424180Y1259840D03*
X449580Y1259840D03*
X474980Y1259840D03*
X500380Y1259840D03*
X525780Y1259840D03*
X551180Y1259840D03*
X576580Y1259840D03*
X601980Y1259840D03*
D10*
X793360Y1463040D03*
X776360Y1463040D03*
X793360Y1478280D03*
X776360Y1478280D03*
D11*
X877710Y1438590D03*
X877710Y1462090D03*
X895210Y1462090D03*
X895210Y1438590D03*
D12*
X911860Y1425330D03*
X911860Y1442330D03*
X911860Y1459620D03*
X911860Y1476620D03*
D10*
X877960Y1488440D03*
X894960Y1488440D03*
X877960Y1503680D03*
X894960Y1503680D03*
X869560Y1418590D03*
X852560Y1418590D03*
X869560Y1403350D03*
X852560Y1403350D03*
X852560Y1388110D03*
X869560Y1388110D03*
D13*
X962961Y1320140D03*
X962961Y1310640D03*
X962961Y1301140D03*
X936959Y1301140D03*
X936959Y1320140D03*
D12*
X981710Y1302140D03*
X981710Y1319140D03*
X918210Y1319140D03*
X918210Y1302140D03*
D14*
X817660Y1319140D03*
D15*
X821660Y1319640D03*
X825660Y1319640D03*
X829660Y1319640D03*
X833660Y1319640D03*
X837660Y1319640D03*
X841660Y1319640D03*
X845660Y1319640D03*
X849660Y1319640D03*
X853660Y1319640D03*
X853660Y1301640D03*
X849660Y1301640D03*
X845660Y1301640D03*
X841660Y1301640D03*
X837660Y1301640D03*
X833660Y1301640D03*
X829660Y1301640D03*
X825660Y1301640D03*
X821660Y1301640D03*
X817660Y1301640D03*
D16*
X988060Y1234440D03*
X962660Y1234440D03*
X937260Y1234440D03*
X911860Y1234440D03*
X886460Y1234440D03*
X861060Y1234440D03*
X835660Y1234440D03*
X810260Y1234440D03*
X784860Y1234440D03*
X759460Y1234440D03*
X734060Y1234440D03*
X708660Y1234440D03*
X683260Y1234440D03*
X683260Y1209040D03*
X708660Y1209040D03*
X734060Y1209040D03*
X759460Y1209040D03*
X784860Y1209040D03*
X810260Y1209040D03*
X835660Y1209040D03*
X861060Y1209040D03*
X886460Y1209040D03*
X911860Y1209040D03*
X937260Y1209040D03*
X962660Y1209040D03*
X988060Y1209040D03*
D17*
X695960Y1564640D03*
X975360Y1564640D03*
D18*
X676910Y1583690D03*
X988060Y1259840D03*
D16*
X734060Y1259840D03*
X759460Y1259840D03*
X784860Y1259840D03*
X810260Y1259840D03*
X835660Y1259840D03*
X861060Y1259840D03*
X886460Y1259840D03*
X911860Y1259840D03*
X937260Y1259840D03*
D19*
X68580Y1610995D03*
X931545Y1610995D03*
D20*
X59525Y-20955D02*
X59528Y-20733D01*
X59536Y-20511D01*
X59550Y-20289D01*
X59569Y-20067D01*
X59593Y-19847D01*
X59623Y-19626D01*
X59658Y-19407D01*
X59699Y-19188D01*
X59745Y-18971D01*
X59796Y-18755D01*
X59853Y-18540D01*
X59915Y-18326D01*
X59982Y-18115D01*
X60054Y-17904D01*
X60132Y-17696D01*
X60214Y-17490D01*
X60302Y-17286D01*
X60394Y-17083D01*
X60492Y-16884D01*
X60594Y-16687D01*
X60701Y-16492D01*
X60813Y-16300D01*
X60930Y-16111D01*
X61051Y-15924D01*
X61177Y-15741D01*
X61307Y-15561D01*
X61442Y-15384D01*
X61580Y-15211D01*
X61723Y-15041D01*
X61871Y-14874D01*
X62022Y-14711D01*
X62177Y-14552D01*
X62336Y-14397D01*
X62499Y-14246D01*
X62666Y-14098D01*
X62836Y-13955D01*
X63009Y-13817D01*
X63186Y-13682D01*
X63366Y-13552D01*
X63549Y-13426D01*
X63736Y-13305D01*
X63925Y-13188D01*
X64117Y-13076D01*
X64312Y-12969D01*
X64509Y-12867D01*
X64708Y-12769D01*
X64911Y-12677D01*
X65115Y-12589D01*
X65321Y-12507D01*
X65529Y-12429D01*
X65740Y-12357D01*
X65951Y-12290D01*
X66165Y-12228D01*
X66380Y-12171D01*
X66596Y-12120D01*
X66813Y-12074D01*
X67032Y-12033D01*
X67251Y-11998D01*
X67472Y-11968D01*
X67692Y-11944D01*
X67914Y-11925D01*
X68136Y-11911D01*
X68358Y-11903D01*
X68580Y-11900D01*
X68802Y-11903D01*
X69024Y-11911D01*
X69246Y-11925D01*
X69468Y-11944D01*
X69688Y-11968D01*
X69909Y-11998D01*
X70128Y-12033D01*
X70347Y-12074D01*
X70564Y-12120D01*
X70780Y-12171D01*
X70995Y-12228D01*
X71209Y-12290D01*
X71420Y-12357D01*
X71631Y-12429D01*
X71839Y-12507D01*
X72045Y-12589D01*
X72249Y-12677D01*
X72452Y-12769D01*
X72651Y-12867D01*
X72848Y-12969D01*
X73043Y-13076D01*
X73235Y-13188D01*
X73424Y-13305D01*
X73611Y-13426D01*
X73794Y-13552D01*
X73974Y-13682D01*
X74151Y-13817D01*
X74324Y-13955D01*
X74494Y-14098D01*
X74661Y-14246D01*
X74824Y-14397D01*
X74983Y-14552D01*
X75138Y-14711D01*
X75289Y-14874D01*
X75437Y-15041D01*
X75580Y-15211D01*
X75718Y-15384D01*
X75853Y-15561D01*
X75983Y-15741D01*
X76109Y-15924D01*
X76230Y-16111D01*
X76347Y-16300D01*
X76459Y-16492D01*
X76566Y-16687D01*
X76668Y-16884D01*
X76766Y-17083D01*
X76858Y-17286D01*
X76946Y-17490D01*
X77028Y-17696D01*
X77106Y-17904D01*
X77178Y-18115D01*
X77245Y-18326D01*
X77307Y-18540D01*
X77364Y-18755D01*
X77415Y-18971D01*
X77461Y-19188D01*
X77502Y-19407D01*
X77537Y-19626D01*
X77567Y-19847D01*
X77591Y-20067D01*
X77610Y-20289D01*
X77624Y-20511D01*
X77632Y-20733D01*
X77635Y-20955D01*
X77632Y-21177D01*
X77624Y-21399D01*
X77610Y-21621D01*
X77591Y-21843D01*
X77567Y-22063D01*
X77537Y-22284D01*
X77502Y-22503D01*
X77461Y-22722D01*
X77415Y-22939D01*
X77364Y-23155D01*
X77307Y-23370D01*
X77245Y-23584D01*
X77178Y-23795D01*
X77106Y-24006D01*
X77028Y-24214D01*
X76946Y-24420D01*
X76858Y-24624D01*
X76766Y-24827D01*
X76668Y-25026D01*
X76566Y-25223D01*
X76459Y-25418D01*
X76347Y-25610D01*
X76230Y-25799D01*
X76109Y-25986D01*
X75983Y-26169D01*
X75853Y-26349D01*
X75718Y-26526D01*
X75580Y-26699D01*
X75437Y-26869D01*
X75289Y-27036D01*
X75138Y-27199D01*
X74983Y-27358D01*
X74824Y-27513D01*
X74661Y-27664D01*
X74494Y-27812D01*
X74324Y-27955D01*
X74151Y-28093D01*
X73974Y-28228D01*
X73794Y-28358D01*
X73611Y-28484D01*
X73424Y-28605D01*
X73235Y-28722D01*
X73043Y-28834D01*
X72848Y-28941D01*
X72651Y-29043D01*
X72452Y-29141D01*
X72249Y-29233D01*
X72045Y-29321D01*
X71839Y-29403D01*
X71631Y-29481D01*
X71420Y-29553D01*
X71209Y-29620D01*
X70995Y-29682D01*
X70780Y-29739D01*
X70564Y-29790D01*
X70347Y-29836D01*
X70128Y-29877D01*
X69909Y-29912D01*
X69688Y-29942D01*
X69468Y-29966D01*
X69246Y-29985D01*
X69024Y-29999D01*
X68802Y-30007D01*
X68580Y-30010D01*
X68358Y-30007D01*
X68136Y-29999D01*
X67914Y-29985D01*
X67692Y-29966D01*
X67472Y-29942D01*
X67251Y-29912D01*
X67032Y-29877D01*
X66813Y-29836D01*
X66596Y-29790D01*
X66380Y-29739D01*
X66165Y-29682D01*
X65951Y-29620D01*
X65740Y-29553D01*
X65529Y-29481D01*
X65321Y-29403D01*
X65115Y-29321D01*
X64911Y-29233D01*
X64708Y-29141D01*
X64509Y-29043D01*
X64312Y-28941D01*
X64117Y-28834D01*
X63925Y-28722D01*
X63736Y-28605D01*
X63549Y-28484D01*
X63366Y-28358D01*
X63186Y-28228D01*
X63009Y-28093D01*
X62836Y-27955D01*
X62666Y-27812D01*
X62499Y-27664D01*
X62336Y-27513D01*
X62177Y-27358D01*
X62022Y-27199D01*
X61871Y-27036D01*
X61723Y-26869D01*
X61580Y-26699D01*
X61442Y-26526D01*
X61307Y-26349D01*
X61177Y-26169D01*
X61051Y-25986D01*
X60930Y-25799D01*
X60813Y-25610D01*
X60701Y-25418D01*
X60594Y-25223D01*
X60492Y-25026D01*
X60394Y-24827D01*
X60302Y-24624D01*
X60214Y-24420D01*
X60132Y-24214D01*
X60054Y-24006D01*
X59982Y-23795D01*
X59915Y-23584D01*
X59853Y-23370D01*
X59796Y-23155D01*
X59745Y-22939D01*
X59699Y-22722D01*
X59658Y-22503D01*
X59623Y-22284D01*
X59593Y-22063D01*
X59569Y-21843D01*
X59550Y-21621D01*
X59536Y-21399D01*
X59528Y-21177D01*
X59525Y-20955D01*
D21*
X68580Y-20955D03*
M02*
